<?xml version="1.0" encoding="UTF-8"?>
<svg id="Capa_1" xmlns="http://www.w3.org/2000/svg" version="1.1" xmlns:xlink="http://www.w3.org/1999/xlink" viewBox="0 0 1280 160">
  <!-- Generator: Adobe Illustrator 29.0.0, SVG Export Plug-In . SVG Version: 2.1.0 Build 186)  -->
  <defs>
    <style>
      .st0 {
        fill: url(#Degradado_sin_nombre_12013);
      }

      .st1 {
        fill: url(#Degradado_sin_nombre_12012);
      }

      .st2 {
        fill: url(#Degradado_sin_nombre_1207);
      }

      .st3 {
        fill: url(#Degradado_sin_nombre_1201);
      }

      .st4 {
        fill: url(#Degradado_sin_nombre_1209);
      }

      .st5 {
        fill: url(#Degradado_sin_nombre_120);
      }

      .st6 {
        fill: url(#Degradado_sin_nombre_1205);
      }

      .st7 {
        fill: url(#Degradado_sin_nombre_1203);
      }

      .st8 {
        fill: url(#Degradado_sin_nombre_1202);
      }

      .st9 {
        fill: url(#Degradado_sin_nombre_12011);
      }

      .st10 {
        fill: url(#Degradado_sin_nombre_1204);
      }

      .st11 {
        fill: url(#Degradado_sin_nombre_1206);
      }

      .st12 {
        fill: url(#Degradado_sin_nombre_12010);
      }

      .st13 {
        fill: url(#Degradado_sin_nombre_1208);
      }
    </style>
    <linearGradient id="Degradado_sin_nombre_120" data-name="Degradado sin nombre 120" x1="55.6" y1="142.9" x2="55.6" y2="25.7" gradientUnits="userSpaceOnUse">
      <stop offset="0" stop-color="#474847"/>
      <stop offset=".9" stop-color="#0f0f0f"/>
    </linearGradient>
    <linearGradient id="Degradado_sin_nombre_1201" data-name="Degradado sin nombre 120" x1="179.9" x2="179.9" xlink:href="#Degradado_sin_nombre_120"/>
    <linearGradient id="Degradado_sin_nombre_1202" data-name="Degradado sin nombre 120" x1="283.9" y1="141.4" x2="283.9" y2="27.4" xlink:href="#Degradado_sin_nombre_120"/>
    <linearGradient id="Degradado_sin_nombre_1203" data-name="Degradado sin nombre 120" x1="354.3" y1="141.4" x2="354.3" y2="27.4" xlink:href="#Degradado_sin_nombre_120"/>
    <linearGradient id="Degradado_sin_nombre_1204" data-name="Degradado sin nombre 120" x1="449.4" x2="449.4" xlink:href="#Degradado_sin_nombre_120"/>
    <linearGradient id="Degradado_sin_nombre_1205" data-name="Degradado sin nombre 120" x1="569.7" x2="569.7" xlink:href="#Degradado_sin_nombre_120"/>
    <linearGradient id="Degradado_sin_nombre_1206" data-name="Degradado sin nombre 120" x1="647.6" y1="141.4" x2="647.6" y2="27.4" xlink:href="#Degradado_sin_nombre_120"/>
    <linearGradient id="Degradado_sin_nombre_1207" data-name="Degradado sin nombre 120" x1="729.6" x2="729.6" xlink:href="#Degradado_sin_nombre_120"/>
    <linearGradient id="Degradado_sin_nombre_1208" data-name="Degradado sin nombre 120" x1="841.7" y1="141.4" x2="841.7" y2="27.4" xlink:href="#Degradado_sin_nombre_120"/>
    <linearGradient id="Degradado_sin_nombre_1209" data-name="Degradado sin nombre 120" x1="966.8" y1="141.4" x2="966.8" y2="24.6" xlink:href="#Degradado_sin_nombre_120"/>
    <linearGradient id="Degradado_sin_nombre_12010" data-name="Degradado sin nombre 120" x1="1061.3" y1="143.1" x2="1061.3" y2="25.6" xlink:href="#Degradado_sin_nombre_120"/>
    <linearGradient id="Degradado_sin_nombre_12011" data-name="Degradado sin nombre 120" x1="1152" y1="141.4" x2="1152" y2="24.6" xlink:href="#Degradado_sin_nombre_120"/>
    <linearGradient id="Degradado_sin_nombre_12012" data-name="Degradado sin nombre 120" x1="1241" y1="144.1" x2="1241" y2="27.4" xlink:href="#Degradado_sin_nombre_120"/>
    <linearGradient id="Degradado_sin_nombre_12013" data-name="Degradado sin nombre 120" x1="749.4" y1="20" x2="749.4" y2="6.4" xlink:href="#Degradado_sin_nombre_120"/>
  </defs>
  <g>
    <path class="st5" d="M97.5,52.5c-4.2-5.3-9.5-9.5-15.7-12.6-6.2-3.1-13.8-4.7-22.6-4.7s-13.7,1.3-19.7,3.8c-6,2.6-11.1,6.1-15.4,10.5-4.3,4.5-7.6,9.7-10,15.6-2.4,5.9-3.6,12.3-3.6,19.2s1.2,13.3,3.5,19.2c2.3,5.9,5.6,11.1,9.9,15.5,4.3,4.4,9.4,7.9,15.4,10.5,6,2.6,12.6,3.8,19.9,3.8s9.9-.6,14.3-1.9c4.5-1.3,8.6-3,12.3-5.2s7.1-4.8,9.9-7.8c2.9-3,5.3-6.3,7.3-9.9l8.2,4.9c-2.5,4.2-5.4,8.1-8.8,11.7-3.4,3.6-7.2,6.7-11.5,9.3-4.3,2.6-9.1,4.6-14.4,6.1-5.3,1.5-11.1,2.2-17.3,2.2s-16.5-1.5-23.7-4.6c-7.2-3-13.5-7.2-18.7-12.6-5.3-5.3-9.4-11.5-12.3-18.7-2.9-7.1-4.4-14.7-4.4-22.7s1.5-15.8,4.4-22.9c2.9-7.1,7-13.3,12.3-18.6s11.5-9.5,18.7-12.6c7.2-3.1,15.1-4.6,23.7-4.6s19.5,1.9,27,5.8c7.4,3.9,13.7,8.7,18.8,14.6l-7.5,6.4Z"/>
    <path class="st3" d="M120.3,84.4c0-8.2,1.5-15.8,4.4-22.9,2.9-7.1,7-13.3,12.2-18.6,5.2-5.3,11.5-9.5,18.7-12.6,7.3-3.1,15.3-4.6,24.1-4.6s16.8,1.5,24.1,4.6c7.3,3.1,13.6,7.3,18.9,12.6,5.3,5.3,9.5,11.5,12.4,18.6,2.9,7.1,4.4,14.8,4.4,22.9s-1.5,15.6-4.4,22.7c-2.9,7.1-7.1,13.3-12.4,18.6-5.3,5.3-11.6,9.5-18.9,12.6-7.3,3.1-15.3,4.6-24.1,4.6s-16.5-1.5-23.8-4.6c-7.3-3-13.6-7.2-18.8-12.6-5.3-5.3-9.4-11.5-12.4-18.7-3-7.1-4.5-14.7-4.5-22.7ZM179.8,133.5c7.1,0,13.6-1.3,19.6-3.8,6-2.6,11.1-6,15.5-10.5,4.3-4.4,7.7-9.6,10.2-15.6,2.4-6,3.7-12.4,3.7-19.1s-1.2-13.3-3.5-19.3c-2.3-6-5.7-11.2-9.9-15.6-4.3-4.4-9.5-7.9-15.5-10.5s-12.7-3.8-20-3.8-13.9,1.3-20,3.8c-6,2.6-11.2,6.1-15.5,10.5-4.3,4.4-7.6,9.6-10,15.6-2.4,6-3.6,12.4-3.6,19.3s1.2,13.3,3.6,19.2c2.4,5.9,5.7,11.1,10,15.5,4.3,4.4,9.5,7.9,15.5,10.5,6,2.6,12.7,3.8,20,3.8Z"/>
    <path class="st8" d="M256.7,27.4h10.4v104.6h43.8v9.5h-54.3V27.4Z"/>
    <path class="st7" d="M327.1,27.4h54.3v9.5h-43.8v41.9h43.8v9.5h-43.8v43.8h43.8v9.5h-54.3V27.4Z"/>
    <path class="st10" d="M491.3,52.5c-4.2-5.3-9.5-9.5-15.7-12.6-6.2-3.1-13.8-4.7-22.6-4.7s-13.7,1.3-19.7,3.8c-6,2.6-11.1,6.1-15.4,10.5-4.3,4.5-7.6,9.7-10,15.6-2.4,5.9-3.6,12.3-3.6,19.2s1.2,13.3,3.5,19.2c2.3,5.9,5.6,11.1,9.9,15.5,4.3,4.4,9.4,7.9,15.4,10.5,6,2.6,12.6,3.8,19.9,3.8s9.9-.6,14.3-1.9c4.5-1.3,8.6-3,12.3-5.2s7.1-4.8,9.9-7.8c2.9-3,5.3-6.3,7.3-9.9l8.2,4.9c-2.5,4.2-5.4,8.1-8.8,11.7-3.4,3.6-7.2,6.7-11.5,9.3-4.3,2.6-9.1,4.6-14.4,6.1-5.3,1.5-11.1,2.2-17.3,2.2s-16.5-1.5-23.7-4.6c-7.2-3-13.5-7.2-18.7-12.6-5.3-5.3-9.4-11.5-12.3-18.7-2.9-7.1-4.4-14.7-4.4-22.7s1.5-15.8,4.4-22.9c2.9-7.1,7-13.3,12.3-18.6s11.5-9.5,18.7-12.6c7.2-3.1,15.1-4.6,23.7-4.6s19.5,1.9,27,5.8c7.4,3.9,13.7,8.7,18.8,14.6l-7.5,6.4Z"/>
    <path class="st6" d="M611.6,52.5c-4.2-5.3-9.5-9.5-15.7-12.6-6.2-3.1-13.8-4.7-22.6-4.7s-13.7,1.3-19.7,3.8c-6,2.6-11.1,6.1-15.4,10.5-4.3,4.5-7.6,9.7-10,15.6-2.4,5.9-3.6,12.3-3.6,19.2s1.2,13.3,3.5,19.2c2.3,5.9,5.6,11.1,9.9,15.5,4.3,4.4,9.4,7.9,15.4,10.5,6,2.6,12.6,3.8,19.9,3.8s9.9-.6,14.3-1.9c4.5-1.3,8.6-3,12.3-5.2s7.1-4.8,9.9-7.8c2.9-3,5.3-6.3,7.3-9.9l8.2,4.9c-2.5,4.2-5.4,8.1-8.8,11.7-3.4,3.6-7.2,6.7-11.5,9.3-4.3,2.6-9.1,4.6-14.4,6.1-5.3,1.5-11.1,2.2-17.3,2.2s-16.5-1.5-23.7-4.6c-7.2-3-13.5-7.2-18.7-12.6-5.3-5.3-9.4-11.5-12.3-18.7-2.9-7.1-4.4-14.7-4.4-22.7s1.5-15.8,4.4-22.9c2.9-7.1,7-13.3,12.3-18.6,5.3-5.3,11.5-9.5,18.7-12.6,7.2-3.1,15.1-4.6,23.7-4.6s19.5,1.9,27,5.8c7.4,3.9,13.7,8.7,18.8,14.6l-7.5,6.4Z"/>
    <path class="st11" d="M652.8,27.4v114.1h-10.4V27.4h10.4Z"/>
    <path class="st2" d="M669.9,84.4c0-8.2,1.5-15.8,4.4-22.9,2.9-7.1,7-13.3,12.2-18.6,5.2-5.3,11.5-9.5,18.7-12.6,7.3-3.1,15.3-4.6,24.1-4.6s16.8,1.5,24.1,4.6c7.3,3.1,13.6,7.3,18.9,12.6,5.3,5.3,9.5,11.5,12.4,18.6,2.9,7.1,4.4,14.8,4.4,22.9s-1.5,15.6-4.4,22.7c-2.9,7.1-7.1,13.3-12.4,18.6-5.3,5.3-11.6,9.5-18.9,12.6-7.3,3.1-15.3,4.6-24.1,4.6s-16.5-1.5-23.8-4.6c-7.3-3-13.6-7.2-18.8-12.6-5.3-5.3-9.4-11.5-12.4-18.7-3-7.1-4.5-14.7-4.5-22.7ZM729.4,133.5c7.1,0,13.6-1.3,19.6-3.8,6-2.6,11.1-6,15.5-10.5,4.3-4.4,7.7-9.6,10.2-15.6,2.4-6,3.7-12.4,3.7-19.1s-1.2-13.3-3.5-19.3c-2.3-6-5.7-11.2-9.9-15.6-4.3-4.4-9.5-7.9-15.5-10.5-6-2.6-12.7-3.8-20-3.8s-13.9,1.3-20,3.8c-6,2.6-11.2,6.1-15.5,10.5-4.3,4.4-7.6,9.6-10,15.6-2.4,6-3.6,12.4-3.6,19.3s1.2,13.3,3.6,19.2c2.4,5.9,5.7,11.1,10,15.5,4.3,4.4,9.5,7.9,15.5,10.5,6,2.6,12.7,3.8,20,3.8Z"/>
    <path class="st13" d="M867.5,141.4l-51.3-92.9v92.9h-9.8V27.4h9.6l51.3,92.9V27.4h9.8v114.1h-9.6Z"/>
    <path class="st4" d="M965.3,95.5c3.6-4.8,6.8-9,9.8-12.7,2.9-3.6,5.5-7.1,7.6-10.2,2.1-3.2,3.7-6.2,4.9-9.1,1.1-2.9,1.7-6,1.7-9.2s-.6-6.3-1.8-8.8c-1.2-2.5-2.8-4.6-4.8-6.3-2-1.7-4.3-3-6.9-3.8-2.6-.9-5.3-1.3-8-1.3s-4.9.4-7.3,1.1c-2.4.7-4.6,1.8-6.7,3.1-2.1,1.4-3.9,3.1-5.4,5.3-1.5,2.1-2.7,4.6-3.4,7.5l-9.3-3.9c1.2-3.8,2.9-7.1,5.1-9.9,2.2-2.8,4.8-5.2,7.7-7,2.9-1.8,6.1-3.2,9.4-4.2,3.3-.9,6.7-1.4,10.2-1.4s7.9.6,11.7,1.9c3.8,1.3,7.2,3.2,10.2,5.7,3,2.6,5.4,5.7,7.2,9.4,1.8,3.7,2.7,8,2.7,12.9s-.6,7.1-1.7,10.4c-1.1,3.2-2.8,6.5-5.1,10-2.2,3.5-5,7.3-8.2,11.3-3.3,4.1-7,8.9-11.2,14.4l-23.8,31.5h53.3v9.5h-72.5l34.7-46Z"/>
    <path class="st12" d="M1106.6,84.4c0,10.8-1.1,19.9-3.3,27.3-2.2,7.4-5.4,13.5-9.4,18.1-4,4.6-8.8,8-14.3,10.1-5.5,2.1-11.6,3.2-18.3,3.2s-12.7-1.1-18.3-3.2c-5.5-2.1-10.3-5.5-14.3-10.1-4-4.6-7.1-10.6-9.3-18.1-2.2-7.4-3.3-16.5-3.3-27.3s1.1-19.9,3.3-27.4c2.2-7.5,5.3-13.6,9.3-18.2,4-4.6,8.7-8,14.3-10.1,5.5-2.1,11.6-3.2,18.3-3.2s12.7,1.1,18.3,3.2c5.5,2.1,10.3,5.5,14.3,10.1,4,4.6,7.1,10.7,9.4,18.2,2.2,7.5,3.3,16.6,3.3,27.4ZM1061.3,35c-11.4,0-20,3.9-25.7,11.8-5.7,7.9-8.6,20.4-8.6,37.6s2.8,29.7,8.5,37.5c5.6,7.8,14.2,11.7,25.8,11.7s20.1-3.9,25.8-11.7c5.7-7.8,8.6-20.3,8.6-37.5s-2.9-29.8-8.6-37.7c-5.7-7.8-14.3-11.7-25.8-11.7Z"/>
    <path class="st9" d="M1150.4,95.5c3.6-4.8,6.8-9,9.8-12.7,2.9-3.6,5.5-7.1,7.6-10.2,2.1-3.2,3.7-6.2,4.9-9.1,1.1-2.9,1.7-6,1.7-9.2s-.6-6.3-1.8-8.8c-1.2-2.5-2.8-4.6-4.8-6.3-2-1.7-4.3-3-6.9-3.8-2.6-.9-5.3-1.3-8-1.3s-4.9.4-7.3,1.1c-2.4.7-4.6,1.8-6.7,3.1-2.1,1.4-3.9,3.1-5.4,5.3-1.5,2.1-2.7,4.6-3.4,7.5l-9.3-3.9c1.2-3.8,2.9-7.1,5.1-9.9,2.2-2.8,4.8-5.2,7.7-7,2.9-1.8,6.1-3.2,9.4-4.2,3.3-.9,6.7-1.4,10.2-1.4s7.9.6,11.7,1.9c3.8,1.3,7.2,3.2,10.2,5.7,3,2.6,5.4,5.7,7.2,9.4,1.8,3.7,2.7,8,2.7,12.9s-.6,7.1-1.7,10.4c-1.1,3.2-2.8,6.5-5.1,10-2.2,3.5-5,7.3-8.2,11.3-3.3,4.1-7,8.9-11.2,14.4l-23.8,31.5h53.3v9.5h-72.5l34.7-46Z"/>
    <path class="st1" d="M1205.8,82.3l15.6-54.9h53.5v9.5h-46.1l-9.6,34.1c3.2-2.1,6.5-3.6,10-4.5,3.5-.9,7.1-1.4,10.8-1.4s9.9.9,14.7,2.6c4.8,1.7,9,4.3,12.8,7.7,3.7,3.4,6.8,7.5,9,12.3,2.3,4.8,3.4,10.4,3.4,16.7s-1,10.7-3.1,15.6c-2.1,4.8-4.9,9-8.6,12.6-3.6,3.6-7.9,6.4-12.9,8.5-4.9,2.1-10.3,3.1-16.1,3.1s-8.5-.6-12.3-1.8c-3.9-1.2-7.4-2.9-10.7-5.1-3.3-2.2-6.1-4.9-8.6-7.9-2.4-3-4.4-6.4-5.8-10.1l9.3-5.1c1.8,6,5.2,11,10.2,14.8,4.9,3.8,10.9,5.8,17.8,5.8s8.4-.8,12.1-2.4c3.7-1.6,6.8-3.7,9.5-6.5,2.6-2.7,4.6-5.9,6.1-9.6,1.5-3.7,2.2-7.6,2.2-11.9s-.9-8.8-2.7-12.5c-1.8-3.8-4.2-7-7.2-9.7-3-2.7-6.4-4.7-10.3-6.1-3.9-1.4-7.8-2.1-11.8-2.1s-7.5.7-11.2,2.1c-3.6,1.4-7,3.5-10.2,6.4h-10.1Z"/>
  </g>
  <path class="st0" d="M761.1,6.4l-14.9,13.6h-8.4l10.9-13.6h12.4Z"/>
</svg>