<svg width="1280" height="220" viewBox="0 0 1280 220" fill="none" xmlns="http://www.w3.org/2000/svg">
<path d="M1261.87 217.246L1165.09 42.8372V217.246H1146.66V3.05978H1164.78L1261.57 177.469V3.05978H1280V217.246H1261.87Z" fill="#F8F0E8"/>
<path d="M895.611 110.153C895.611 94.854 898.376 80.5749 903.907 67.3157C909.437 53.8526 917.118 42.2253 926.95 32.4339C936.782 22.4386 948.56 14.5851 962.283 8.87343C976.007 2.95781 991.164 0 1007.76 0C1024.35 0 1039.5 2.95781 1053.23 8.87343C1066.95 14.5851 1078.83 22.4386 1088.87 32.4339C1098.9 42.2253 1106.69 53.8526 1112.22 67.3157C1117.75 80.5749 1120.51 94.854 1120.51 110.153C1120.51 125.248 1117.75 139.527 1112.22 152.99C1106.69 166.249 1098.9 177.877 1088.87 187.872C1078.83 197.663 1066.95 205.517 1053.23 211.433C1039.5 217.144 1024.35 220 1007.76 220C991.574 220 976.621 217.144 962.898 211.433C949.174 205.721 937.294 197.867 927.257 187.872C917.426 177.877 909.642 166.249 903.907 152.99C898.376 139.527 895.611 125.248 895.611 110.153ZM1007.76 201.947C1021.07 201.947 1033.36 199.601 1044.62 194.91C1055.89 190.014 1065.62 183.486 1073.81 175.327C1082.01 166.963 1088.36 157.172 1092.86 145.953C1097.57 134.733 1099.93 122.8 1099.93 110.153C1099.93 97.3018 1097.68 85.2666 1093.17 74.0473C1088.87 62.828 1082.62 53.1386 1074.43 44.9791C1066.44 36.6157 1056.71 30.0881 1045.24 25.3964C1033.97 20.5007 1021.48 18.0529 1007.76 18.0529C994.032 18.0529 981.435 20.5007 969.964 25.3964C958.699 30.0881 948.969 36.6157 940.776 44.9791C932.788 53.1386 926.54 62.828 922.034 74.0473C917.528 85.2666 915.275 97.3018 915.275 110.153C915.275 123.004 917.528 135.039 922.034 146.259C926.54 157.274 932.788 166.963 940.776 175.327C948.969 183.486 958.699 190.014 969.964 194.91C981.435 199.601 994.032 201.947 1007.76 201.947Z" fill="#F8F0E8"/>
<path d="M869.565 3.05978V217.246H849.901V3.05978H869.565Z" fill="#F8F0E8"/>
<path d="M698.135 3.05978H825.334V20.8067H771.566V217.246H751.903V20.8067H698.135V3.05978Z" fill="#F8F0E8"/>
<path d="M638.798 1.83587L701.476 217.246H681.198L663.378 154.52H599.471L581.958 217.246H562.909L625.894 1.83587H638.798ZM604.387 136.773H658.462L631.425 40.0834L604.387 136.773Z" fill="#F8F0E8"/>
<path d="M529.641 50.1808C521.652 40.3894 511.718 32.6379 499.838 26.9263C488.163 21.0107 474.029 18.0529 457.438 18.0529C443.919 18.0529 431.527 20.5007 420.262 25.3964C408.996 30.0881 399.267 36.6157 391.074 44.9791C383.085 53.3426 376.838 63.134 372.332 74.3533C367.825 85.3686 365.572 97.3018 365.572 110.153C365.572 123.004 367.723 135.039 372.024 146.259C376.531 157.274 382.778 166.963 390.766 175.327C398.959 183.486 408.689 190.014 419.954 194.91C431.22 199.601 443.715 201.947 457.438 201.947C467.065 201.947 476.078 200.825 484.476 198.581C492.874 196.134 500.555 192.87 507.519 188.79C514.688 184.71 520.935 179.917 526.261 174.409C531.791 168.697 536.4 162.476 540.087 155.744L555.449 164.924C550.738 172.879 545.208 180.223 538.858 186.954C532.508 193.686 525.237 199.499 517.044 204.395C509.055 209.291 500.043 213.166 490.006 216.022C479.969 218.674 469.113 220 457.438 220C441.257 220 426.304 217.144 412.581 211.433C399.062 205.721 387.284 197.867 377.248 187.872C367.416 177.877 359.735 166.249 354.204 152.99C348.674 139.527 345.909 125.248 345.909 110.153C345.909 94.854 348.674 80.5749 354.204 67.3157C359.735 53.8526 367.416 42.2253 377.248 32.4339C387.284 22.4386 399.062 14.5851 412.581 8.87343C426.304 2.95781 441.257 0 457.438 0C477.307 0 494.205 3.67177 508.133 11.0153C522.267 18.1548 534.147 27.2323 543.774 38.2476L529.641 50.1808Z" fill="#F8F0E8"/>
<path d="M105.418 110.153C105.418 94.854 108.183 80.5749 113.714 67.3157C119.244 53.8526 126.925 42.2253 136.757 32.4339C146.589 22.4386 158.367 14.5851 172.09 8.87343C185.814 2.95781 200.971 0 217.562 0C234.153 0 249.311 2.95781 263.034 8.87343C276.758 14.5851 288.638 22.4386 298.675 32.4339C308.711 42.2253 316.495 53.8526 322.025 67.3157C327.556 80.5749 330.321 94.854 330.321 110.153C330.321 125.248 327.556 139.527 322.025 152.99C316.495 166.249 308.711 177.877 298.675 187.872C288.638 197.663 276.758 205.517 263.034 211.433C249.311 217.144 234.153 220 217.562 220C201.381 220 186.428 217.144 172.705 211.433C158.981 205.721 147.101 197.867 137.064 187.872C127.233 177.877 119.449 166.249 113.714 152.99C108.183 139.527 105.418 125.248 105.418 110.153ZM217.562 201.947C230.876 201.947 243.166 199.601 254.432 194.91C265.697 190.014 275.427 183.486 283.62 175.327C291.813 166.963 298.163 157.172 302.669 145.953C307.38 134.733 309.735 122.8 309.735 110.153C309.735 97.3018 307.482 85.2666 302.976 74.0473C298.675 62.828 292.427 53.1386 284.234 44.9791C276.246 36.6157 266.517 30.0881 255.046 25.3964C243.78 20.5007 231.286 18.0529 217.562 18.0529C203.839 18.0529 191.242 20.5007 179.771 25.3964C168.506 30.0881 158.776 36.6157 150.583 44.9791C142.595 53.1386 136.348 62.828 131.841 74.0473C127.335 85.2666 125.082 97.3018 125.082 110.153C125.082 123.004 127.335 135.039 131.841 146.259C136.348 157.274 142.595 166.963 150.583 175.327C158.776 183.486 168.506 190.014 179.771 194.91C191.242 199.601 203.839 201.947 217.562 201.947Z" fill="#F8F0E8"/>
<path d="M0 3.05978H19.6636V199.499H102.312V217.246H0V3.05978Z" fill="#F8F0E8"/>
</svg>
