<?xml version="1.0" encoding="UTF-8"?>
<svg id="Capa_1" xmlns="http://www.w3.org/2000/svg" version="1.1" viewBox="0 0 937.1 507.4">
  <!-- Generator: Adobe Illustrator 29.0.0, SVG Export Plug-In . SVG Version: 2.1.0 Build 186)  -->
  <defs>
    <style>
      .st0 {
        fill: #1f1f1f;
      }
    </style>
  </defs>
  <g>
    <path class="st0" d="M352,195.2h-26.8v52.3h-38.1v-52.3h-130.4L246.8,2.9l40.5.2-73.2,154h72.9v-78.4h38.1v78.4h26.8v38.1Z"/>
    <path class="st0" d="M370.9,125.6C370.9,52,411.2,0,470.5,0s99.6,52,99.6,125.6-40.2,125.4-99.6,125.4-99.6-52-99.6-125.4ZM531.6,125.6c0-51-24.5-87.1-61.3-87.1s-61.3,36.2-61.3,87.1,24.4,86.8,61.3,86.8,61.3-36,61.3-86.8Z"/>
    <path class="st0" d="M780.5,195.2h-26.8v52.3h-38.1v-52.3h-130.4L675.3,2.9l40.5.2-73.2,154h72.9v-78.4h38.1v78.4h26.8v38.1Z"/>
  </g>
  <g>
    <path class="st0" d="M329.4,258.7h12.7c7.4,0,13.4,5.6,13.4,12.6s-6,12.3-13.4,12.3h-6.8v13.2h-6v-38ZM349.5,271.3c0-3.6-3.3-6.6-7.4-6.6h-6.8v13h6.8c4.1,0,7.4-2.9,7.4-6.4Z"/>
    <path class="st0" d="M377.1,291h-18l-2.6,5.8h-6.5l17.9-38.8h.4l17.9,38.8h-6.5l-2.6-5.8ZM374.8,285.9l-6.7-14.9-6.7,14.9h13.4Z"/>
    <path class="st0" d="M423,279c0,11.3-8.2,18.4-18.1,18.4s-19.8-8.8-19.8-19.6,8.8-19.7,19.6-19.7c4.8,0,10.3,2.3,13.9,5.8l-3.3,5c-3-2.9-7-4.8-10.6-4.8-6.9,0-13.5,5.8-13.5,13.7s5.9,13.6,14,13.6,11.4-4,11.4-9.8h0c0-.1-11.8-.1-11.8-.1v-5.5h18c0,.9.2,1.9.2,3Z"/>
    <path class="st0" d="M428.5,258.7h6v38h-6v-38Z"/>
    <path class="st0" d="M472.4,258.7v38.8h-.3l-24.3-25.4v24.8h-6v-38.8h.3l24.3,25.4v-24.8h6Z"/>
    <path class="st0" d="M503.6,291h-18l-2.6,5.8h-6.5l17.9-38.8h.4l17.9,38.8h-6.5l-2.6-5.8ZM501.3,285.9l-6.7-14.9-6.7,14.9h13.4Z"/>
    <path class="st0" d="M561.7,258.7v38.8h-.3l-24.3-25.4v24.8h-6v-38.8h.3l24.3,25.4v-24.8h6Z"/>
    <path class="st0" d="M567.2,277.8c0-10.9,8.8-19.7,19.7-19.7s19.7,8.9,19.7,19.7-8.9,19.6-19.7,19.6-19.6-8.8-19.6-19.6ZM600.5,277.8c0-7.5-6.2-13.7-13.7-13.7s-13.6,6.1-13.6,13.7,6.1,13.6,13.6,13.6,13.7-6.1,13.7-13.6Z"/>
    <path class="st0" d="M301.9,322.6v9.7h14.4v5.9h-14.4v10.5h16.7v5.9h-22.7v-38h22.7v5.9h-16.7Z"/>
    <path class="st0" d="M355.3,316.7v38.8h-.3l-24.3-25.4v24.8h-6v-38.8h.3l24.3,25.4v-24.8h6Z"/>
    <path class="st0" d="M360.8,335.8c0-10.7,8.9-19.7,19.6-19.7,4.9,0,9.5,2.2,13.2,5.8l-3.5,4.7c-2.7-2.7-6.1-4.4-9.9-4.4-6.9,0-13.5,6-13.5,13.7s6.7,13.6,13.5,13.6,7.2-1.9,9.9-4.5l3.4,4.8c-3.3,3.2-7.5,5.7-13.1,5.7-10.8,0-19.7-8.9-19.7-19.6Z"/>
    <path class="st0" d="M395,335.8c0-10.9,8.8-19.7,19.7-19.7s19.7,8.9,19.7,19.7-8.9,19.6-19.7,19.6-19.6-8.8-19.6-19.6ZM428.3,335.8c0-7.5-6.2-13.7-13.7-13.7s-13.6,6.1-13.6,13.7,6.1,13.6,13.6,13.6,13.7-6.1,13.7-13.6Z"/>
    <path class="st0" d="M470.4,316.7v38.8h-.3l-24.3-25.4v24.8h-6v-38.8h.3l24.3,25.4v-24.8h6Z"/>
    <path class="st0" d="M501.6,322.7h-10.2v32.1h-6v-32.1h-10.2v-5.9h26.4v5.9Z"/>
    <path class="st0" d="M527.2,354.8l-10.2-14.7h-4.7v14.7h-6v-38s11.8,0,11.8,0c7.1,0,12.9,5.5,12.9,12.2s-3.2,9.2-7.5,10.6l11.1,15.2h-7.3ZM518.3,335.1c3.6,0,6.6-2.9,6.6-6.3s-3-6.2-6.6-6.2h-6v12.4h6Z"/>
    <path class="st0" d="M562.5,349h-18l-2.6,5.8h-6.5l17.9-38.8h.4l17.9,38.8h-6.5l-2.6-5.8ZM560.2,343.9l-6.7-14.9-6.7,14.9h13.4Z"/>
    <path class="st0" d="M606.2,335.8c0,11.7-7.5,19-19.6,19h-10.8v-38h10.8c12.1,0,19.6,7.3,19.6,19.1ZM600.2,335.8c0-8.1-5.2-13.1-13.6-13.1h-4.9v26.2h4.9c8.3,0,13.5-5,13.5-13.1Z"/>
    <path class="st0" d="M632.2,349h-18l-2.6,5.8h-6.5l17.9-38.8h.4l17.9,38.8h-6.5l-2.6-5.8ZM629.9,343.9l-6.7-14.9-6.7,14.9h13.4Z"/>
  </g>
</svg>