<svg width="130" height="30" viewBox="0 0 130 30" fill="none" xmlns="http://www.w3.org/2000/svg">
<path d="M76.9363 0V29.8729H82.3787V19.322H93.511V13.8559H82.3787V5.4661H94.5005V0H76.9363Z" fill="#F8F0E8"/>
<path fill-rule="evenodd" clip-rule="evenodd" d="M49.2293 0.254237H53.3112L65.433 30H59.4958L56.7745 23.3898H45.3949L42.6737 29.8729H36.7365L49.2293 0.254237ZM51.2084 8.64407L47.1266 18.8136H55.1666L51.2084 8.64407Z" fill="#F8F0E8"/>
<path d="M23.1304 18.9407H15.8325V14.2373H28.4491V15C28.4491 18.8136 27.5833 21.9915 25.8516 24.5339C23.3778 28.2203 19.667 30 14.7193 30C10.3901 30 6.80305 28.6017 4.08183 25.9322C1.36061 23.2627 0 19.7034 0 15.2542C0 10.9322 1.4843 7.37288 4.20552 4.57627C7.05043 1.90678 10.6375 0.508475 14.9667 0.508475C16.8221 0.508475 18.5538 0.762712 20.0381 1.27119C21.5224 1.77966 22.7593 2.41526 23.7488 3.30509C24.4448 3.93094 24.9572 4.4939 25.3721 4.94976C25.5471 5.14204 25.7048 5.31526 25.8516 5.4661C26.3464 5.97458 26.7174 6.61017 27.0885 7.24576L22.3882 9.78814C22.3058 9.5339 22.1133 9.27966 21.9209 9.02542C21.8247 8.8983 21.7285 8.77118 21.6461 8.64407C21.5304 8.52519 21.4147 8.39395 21.2915 8.25422C21.0196 7.9457 20.7111 7.59573 20.2855 7.24576C19.7907 6.73729 18.9248 6.22882 18.059 5.97458C17.1932 5.59322 16.2036 5.4661 15.0904 5.4661C12.3692 5.4661 10.1427 6.48305 8.41104 8.38983C6.67936 10.2966 5.81352 12.5847 5.81352 15.3814C5.81352 17.9237 6.55567 20.0847 8.16366 22.1186C9.77165 24.0254 11.9981 25.0424 15.0904 25.0424C17.1932 25.0424 18.9248 24.5339 20.4091 23.5169C22.0171 22.5 22.883 20.9746 23.1304 18.9407Z" fill="#F8F0E8"/>
<path fill-rule="evenodd" clip-rule="evenodd" d="M117.878 0.254237L130 29.8729L124.063 30L121.342 23.3898H109.962L107.241 29.8729H101.18L101.427 29.2373L113.673 0.254237H117.878ZM115.775 8.64407L111.694 18.8136H119.734L115.775 8.64407Z" fill="#F8F0E8"/>
</svg>
