<svg width="180" height="48" viewBox="0 0 180 48" fill="none" xmlns="http://www.w3.org/2000/svg">
<path d="M14.3486 0H26.7149C26.7454 0 26.7701 0.0242445 26.7701 0.0541516V47.9458C26.7701 47.9758 26.7454 48 26.7149 48H14.3486C14.318 48 14.2933 47.9758 14.2933 47.9458V0.0541516C14.2933 0.0242445 14.318 0 14.3486 0Z" fill="#F8F0E8"/>
<path d="M0.0505391 12.1453H12.4263C12.4542 12.1453 12.4768 12.1675 12.4768 12.1948V47.9504C12.4768 47.9777 12.4542 47.9999 12.4263 47.9999H0.0505391C0.0226271 47.9999 0 47.9777 0 47.9504V12.1948C0 12.1675 0.0226271 12.1453 0.0505391 12.1453Z" fill="#F8F0E8"/>
<path d="M40.7728 12.1453H28.4413C28.4125 12.1453 28.3892 12.1682 28.3892 12.1964V47.9488C28.3892 47.977 28.4125 47.9999 28.4413 47.9999H40.7728C40.8016 47.9999 40.825 47.977 40.825 47.9488V12.1964C40.825 12.1682 40.8016 12.1453 40.7728 12.1453Z" fill="#F8F0E8"/>
<path fill-rule="evenodd" clip-rule="evenodd" d="M177.664 24.7582L178.361 25.962C178.403 26.0331 178.382 26.0687 178.298 26.0687H177.912C177.854 26.0687 177.811 26.0445 177.783 25.996L177.025 24.7072C177 24.664 176.951 24.6361 176.9 24.636H176.513C176.459 24.636 176.414 24.6804 176.414 24.7335V25.9898C176.414 26.0414 176.387 26.0677 176.335 26.0687L175.982 26.0718C175.939 26.0727 175.902 26.0372 175.902 25.9944L175.9 23.0548C175.9 23.0063 175.924 22.9815 175.973 22.9805C176.506 22.9671 177.033 22.965 177.555 22.9743C178.689 22.9929 178.778 24.4519 177.718 24.6437C177.645 24.6572 177.628 24.6953 177.664 24.7582ZM176.414 23.5035V24.1131C176.414 24.1467 176.444 24.1765 176.478 24.1765L177.374 24.1749C177.518 24.1748 177.661 24.1398 177.763 24.0795C177.865 24.0191 177.924 23.9351 177.923 23.85V23.7603C177.923 23.6747 177.865 23.5928 177.762 23.5324C177.659 23.4721 177.519 23.4383 177.374 23.4385L176.478 23.44C176.444 23.44 176.414 23.4698 176.414 23.5035Z" fill="#F8F0E8"/>
<path fill-rule="evenodd" clip-rule="evenodd" d="M177.087 27.2515C178.636 27.2329 180.019 26.0133 180 24.4578C179.98 22.9022 178.567 21.7161 177.019 21.7346C175.47 21.7531 174.087 22.9727 174.106 24.5283C174.126 26.0839 175.539 27.27 177.087 27.2515ZM177.057 22.2295C178.328 22.2317 179.475 23.2201 179.473 24.4972C179.47 25.7742 178.32 26.7587 177.049 26.7566C175.778 26.7544 174.631 25.766 174.633 24.4889C174.636 23.2118 175.786 22.2273 177.057 22.2295Z" fill="#F8F0E8"/>
<path d="M173.176 46.3661V27.1624C173.176 27.123 173.135 27.0942 173.097 27.1067L171.045 27.7751C171.021 27.7828 171.004 27.8061 171.004 27.8308V46.8829C171.004 46.9204 171.041 46.949 171.078 46.9401L173.13 46.4218C173.156 46.4157 173.175 46.3919 173.176 46.3661Z" fill="#F8F0E8"/>
<path d="M134.289 27.3399L136.389 28.2295C136.424 28.2438 136.438 28.286 136.419 28.3177L125.5 47.1408C125.485 47.1667 125.451 47.1791 125.422 47.1687L123.385 46.4462C123.349 46.4331 123.333 46.3906 123.352 46.358L127.286 39.7267C127.298 39.7069 127.297 39.681 127.284 39.6617L119.836 28.1445C119.816 28.1128 119.83 28.0695 119.865 28.0547L121.673 27.2842C121.701 27.2721 121.736 27.2824 121.752 27.3074L128.392 37.0361C128.418 37.0735 128.476 37.071 128.499 37.0315L134.208 27.3662C134.224 27.3394 134.26 27.3275 134.289 27.3399Z" fill="#F8F0E8"/>
<path fill-rule="evenodd" clip-rule="evenodd" d="M158.685 46.5335V40.3803C158.685 40.3298 158.711 40.3045 158.762 40.3045L159.096 40.3053C160.407 40.3091 161.887 40.3134 163.023 40.0028C165.836 39.2292 167.656 36.8945 167.776 34.0631C167.896 31.2534 165.985 28.5165 163.161 27.7336C162.601 27.5778 161.739 27.4989 160.577 27.4969C159.2 27.4938 157.818 27.4953 156.433 27.5015C156.381 27.5015 156.355 27.5268 156.355 27.5773V46.7269C156.355 46.7816 156.383 46.8063 156.439 46.8012L158.601 46.6217C158.647 46.6185 158.685 46.5782 158.685 46.5335ZM161.409 29.3241C163.304 29.485 164.625 30.3942 165.372 32.0518C165.884 33.189 165.846 34.4824 165.317 35.6243C164.615 37.1415 163.353 38.0157 161.529 38.2467C160.621 38.3623 159.702 38.3107 158.773 38.092C158.723 38.0808 158.685 38.0333 158.685 37.9822V29.6243C158.685 29.5634 158.715 29.5257 158.775 29.5113C159.644 29.3102 160.522 29.2478 161.409 29.3241Z" fill="#F8F0E8"/>
<path d="M78.3453 46.8566L76.5054 47.5389C76.4748 47.5507 76.4405 47.5278 76.4406 47.4956V27.8664C76.4398 27.8247 76.4938 27.8033 76.5228 27.8339L90.3752 41.8716C90.4042 41.9022 90.4582 41.8808 90.4573 41.8391V28.2594C90.4575 28.2386 90.473 28.2194 90.4937 28.2145L92.3336 27.7534C92.3628 27.7466 92.3919 27.7689 92.392 27.7983V47.3455C92.3929 47.3873 92.3389 47.4086 92.3099 47.378L78.4575 33.2088C78.4285 33.1782 78.3745 33.1996 78.3753 33.2413V46.8133C78.3754 46.832 78.3631 46.8497 78.3453 46.8566Z" fill="#F8F0E8"/>
<path fill-rule="evenodd" clip-rule="evenodd" d="M135.29 47.5015L139.784 39.7842C139.792 39.77 139.808 39.7609 139.825 39.761H148.107C148.124 39.7613 148.14 39.771 148.148 39.7857L152.243 47.4427C152.254 47.4626 152.28 47.4723 152.301 47.4644L154.228 46.7945C154.256 46.7856 154.269 46.7531 154.255 46.728L143.955 27.7795C143.937 27.7473 143.888 27.7473 143.871 27.7795L133.465 46.7264C133.451 46.7499 133.462 46.7804 133.487 46.7914L135.23 47.5201C135.252 47.5294 135.278 47.5211 135.29 47.5015ZM140.635 37.6661C140.595 37.6655 140.569 37.6213 140.589 37.5872L143.746 32.4072C143.767 32.3742 143.817 32.3742 143.838 32.4072L146.976 37.598C146.996 37.6322 146.97 37.6764 146.93 37.6769L140.635 37.6661Z" fill="#F8F0E8"/>
<path fill-rule="evenodd" clip-rule="evenodd" d="M59.9476 39.7862L55.456 47.4943C55.4433 47.5163 55.4133 47.5261 55.3896 47.516L53.6523 46.795C53.6246 46.7833 53.6127 46.7498 53.6271 46.7238L64.0271 27.7847C64.0464 27.7497 64.0993 27.7497 64.1187 27.7847L74.4097 46.7176C74.4249 46.7448 74.4112 46.78 74.3813 46.7903L72.4671 47.4665C72.4438 47.4746 72.4159 47.4644 72.4039 47.4432L68.3102 39.7878C68.3016 39.7712 68.2835 39.7601 68.2645 39.7599H59.9918C59.9737 39.7604 59.9564 39.7707 59.9476 39.7862ZM60.7547 37.5846C60.733 37.62 60.7599 37.6665 60.802 37.6666L67.091 37.6758C67.132 37.6752 67.1583 37.6305 67.1384 37.5954L64.0034 32.4123C63.9823 32.3779 63.9297 32.3779 63.9086 32.4123L60.7547 37.5846Z" fill="#F8F0E8"/>
<path d="M94.9472 29.7039H100.668C100.697 29.7039 100.723 29.7293 100.723 29.758V47.0556C100.722 47.089 100.754 47.1155 100.788 47.1098L103.125 46.7168C103.151 46.7124 103.171 46.6884 103.171 46.6626V29.9499C103.171 29.9212 103.197 29.8957 103.226 29.8957L108.446 29.8973C108.475 29.8973 108.501 29.8719 108.501 29.8431V27.8627C108.501 27.834 108.475 27.8086 108.446 27.8086H96.0527C96.0336 27.8086 96.0152 27.8189 96.0053 27.8349L94.8998 29.6219C94.8781 29.6573 94.905 29.7039 94.9472 29.7039Z" fill="#F8F0E8"/>
</svg>
