<svg width="167" height="30" viewBox="0 0 167 30" fill="none" xmlns="http://www.w3.org/2000/svg">
<path d="M124.478 0.0205624C121.511 0.0205624 118.749 1.05127 116.901 2.85004C115.313 4.39515 114.524 6.34007 114.617 8.47604V8.51569C114.767 10.8857 115.998 12.9021 118.187 14.3862L118.18 14.3966L118.537 14.6137C118.597 14.6524 118.66 14.6897 118.725 14.7285L118.747 14.741C119.121 14.9679 119.523 15.177 119.975 15.3774C120.014 15.3948 120.05 15.4115 120.087 15.4275L120.721 15.7009L120.73 15.6863C121.676 16.0456 122.652 16.3178 123.604 16.5835C125.536 17.1217 127.354 17.6297 128.376 18.6658C128.443 18.7365 128.51 18.8065 128.57 18.8787L128.631 18.9538C128.638 18.9645 128.648 18.9761 128.662 18.9935L128.669 19.008C129.145 19.6277 129.377 20.3269 129.377 21.1475C129.377 24.1157 126.618 25.6691 123.89 25.6691C121.094 25.6691 119.371 25.3934 116.569 23.7533L116.004 23.4215L113.544 27.0935L114.111 27.4254C117.814 29.5908 120.406 30 123.893 30C126.551 30 129.038 29.1655 130.895 27.6525C132.908 26.0126 134.017 23.703 134.017 21.1458C134.017 19.4203 133.49 17.8586 132.457 16.5011L132.447 16.4885C132.417 16.4525 132.39 16.414 132.36 16.3779L132.336 16.3487C132.18 16.1497 132.008 15.9593 131.835 15.779L131.826 15.7707C131.815 15.7573 131.802 15.7414 131.784 15.7227C129.897 13.8156 127.262 13.0805 124.936 12.432C123.882 12.1382 122.889 11.8589 122.071 11.5076L121.997 11.4763C121.757 11.3695 121.523 11.2506 121.307 11.1236L121.252 11.0923C119.984 10.3444 119.329 9.42482 119.251 8.28193C119.216 7.35906 119.561 6.51871 120.25 5.84949C121.226 4.8987 122.771 4.35344 124.482 4.35344C126.625 4.35344 128.543 4.92107 130.348 6.08892L130.9 6.44572L133.54 2.88461L132.991 2.5278C130.393 0.842601 127.518 0 124.456 0L124.478 0.0205624ZM0 0.726197V29.2983H4.59395V17.1621H18.2236V29.2983H22.8194V0.726197H18.2236V12.8642H4.59395V0.726197H0ZM47.498 0.726197L35.5511 29.2983H40.7648L49.7208 7.21041L58.6767 29.2983H63.8885L51.9435 0.726197H47.4961H47.498ZM86.4241 0.726197L74.4754 29.2983H79.6909L88.645 7.21041L97.601 29.2983H102.816L90.8678 0.726197H86.4222H86.4241ZM144.182 0.726197V5.02069H153.292V29.2931H157.89V5.02069H167V0.726197H144.179H144.182Z" fill="#F8F0E8"/>
</svg>
