<svg width="211" height="30" viewBox="0 0 211 30" fill="none" xmlns="http://www.w3.org/2000/svg">
<path fill-rule="evenodd" clip-rule="evenodd" d="M206.78 29.9885H206.506L206.335 29.6309L202.263 20.8535H185.087L181.015 29.6309L180.844 29.9885H176.35L176.693 29.2618L180.878 20.2307L182.589 16.5513L188.44 3.95617L188.805 3.17186C190.06 0.449827 193.253 -0.726644 195.945 0.530565C197.097 1.07266 198.021 2.00692 198.557 3.17186L198.922 3.95617L204.761 16.5513L206.472 20.2307L210.669 29.2618L211 29.9885H206.78ZM195.146 5.53633C194.77 4.71742 193.801 4.35986 192.991 4.74048C192.649 4.90196 192.364 5.19031 192.204 5.53633L187.208 16.2976H200.153L195.158 5.53633H195.146ZM165.983 4.29066V29.9885H161.751V4.29066H147.677V0.023068H179.704V4.29066H165.983ZM144.301 29.2734L144.871 29.9885H139.465L139.328 29.827L127.033 14.4521L117.419 22.2722V30H113.187V0H117.419V16.8166L137.914 0.11534L138.028 0.023068H144.735L143.56 1.00346L130.318 11.7762L143.64 28.4544L144.301 29.2849V29.2734ZM80.6476 29.9885H80.2142V0.023068H108.967V4.39446H84.4456V12.9642H106.127L106.481 17.5317H84.4456V25.3864H108.967V29.9423H108.534L80.659 30L80.6476 29.9885ZM62.2507 4.29066V29.8847H58.0193V4.29066H43.945V0.023068H75.9714V4.29066H62.2393H62.2507ZM27.7608 29.8962H26.3009V15.9631H29.3005V18.3506H27.7608V29.8847V29.8962ZM24.7839 14.3599H24.7611V29.8962H23.267V11.9839H29.3005V14.3714H24.7725L24.7839 14.3599ZM21.6361 10.4268H21.6132V29.8847H20.1762V7.99308H29.3005V10.3806H21.6361V10.4268ZM18.5224 6.38985V29.8847H17.0853V4.00231H29.3005V6.38985H18.5224ZM15.4201 29.8847H13.8804V2.41061H0V0.023068H29.3005V2.41061H15.4201V29.8847ZM12.2266 29.8847H10.7895V6.40138H0V4.01384H12.2266V29.8962V29.8847ZM9.12432 29.8847H7.68724V10.4268H7.66443V10.3806H0V7.99308H9.12432V29.8962V29.8847ZM6.03346 29.8847H4.53935V14.3599H0V11.9723H6.03346V29.8847ZM2.99962 29.8847H1.53973V18.3506H0V15.9631H2.99962V29.8962V29.8847Z" fill="white"/>
</svg>
