<?xml version="1.0" encoding="UTF-8"?><!DOCTYPE svg PUBLIC "-//W3C//DTD SVG 1.1//EN" "http://www.w3.org/Graphics/SVG/1.1/DTD/svg11.dtd"><svg xmlns="http://www.w3.org/2000/svg" xmlns:xlink="http://www.w3.org/1999/xlink"><defs><clipPath id="famous-a"><path fill="currentColor" d="M0 0h20v20H0z"/></clipPath><clipPath id="lock-a"><path fill="#fff" d="M0 0h20v20H0z"/></clipPath></defs><symbol id="3d-map-cursor" viewBox="0 0 97 98"><g fill="none"><path d="M49.5 0 52 3h-5l2.5-3ZM0 49l3-2.5v5L0 49ZM49.5 98l2.5-3h-5l2.5 3ZM97 49l-3-2.5v5l3-2.5Z" fill="currentColor"/></g></symbol><symbol id="3d-map-particle-path" viewBox="0 0 2137 1197"><g fill="none"><path class="cls-2" d="M-416.938 1400.82c3.784 7.65 8.682 6.65 12.911 6.98 12.911 1 26.045.89 38.733 3.22 20.035 3.66 39.958 8.31 59.658 13.52 45.411 12.19 91.49 17.85 138.571 17.29 36.062-.44 71.79-3.21 106.628-13.52 15.582-4.66 32.055-7.54 46.635-14.41 55.985-26.38 113.528-49.43 166.174-82.46 2.56-1.55 5.12-2.99 7.791-4.21 83.477-39.57 167.733-77.03 258.332-97.87 20.257-4.65 40.292-9.97 60.66-13.63 33.836-6.09 68.006-4.1 101.953 0 19.7 2.33 38.51 7.09 55.873 17.07 12.466 7.2 25.711 13.19 38.511 19.95 6.233 3.21 12.466 6.54 18.365 10.42 38.844 25.82 76.13 53.86 111.97 83.9 3.116 2.66 6.233 5.21 9.015 8.2 52.869 56.97 108.631 111.17 164.727 164.92 17.697 16.85 34.841 34.58 54.201 49.21 45.3 34.03 91.05 67.28 141.13 94.43 27.94 15.07 56.88 27.38 86.82 36.91 56.65 18.29 114.86 29.26 174.41 32.91 2.89.23 6.01.34 8.79-.22 1.34-.22 3.34-2.21 3.34-3.43.11-1.33-1.56-3.55-2.89-3.99-3.12-1-6.57-1.33-9.8-1.55-56.87-3.66-112.52-14.19-166.84-31.26a520.546 520.546 0 0 1-73.12-29.26c-36.29-17.73-70.68-39.12-103.18-63.17-20.26-14.97-41.85-28.38-60.44-45.11-58.32-52.43-115.195-106.62-169.065-163.7-30.831-32.7-63.443-63.07-98.948-90.56-42.629-32.91-88.374-60.84-137.013-84.12-3.339-1.55-6.9-2.66-10.462-3.54-40.18-10.75-81.139-12.64-122.432-9.2-21.927 1.77-43.186 6.54-64.333 12.52-34.949 9.87-70.343 18.51-104.735 29.93-46.413 15.51-91.157 35.57-135.344 56.41-14.358 6.76-29.272 12.86-42.962 20.84-34.281 20.06-69.23 38.46-105.737 54.19-9.572 4.1-19.033 8.43-28.16 13.3-23.04 12.2-47.526 20.62-72.791 27.05-26.601 6.65-53.203 12.3-80.917 13.3-54.427 2.1-108.185-1.44-160.943-15.85-16.806-4.66-34.058-7.54-50.865-12.08-17.474-4.66-35.171-5.21-52.979-5.43-3.34 0-6.679 1.22-11.242 2.1ZM1852.51 1174.61c-2.34-7.76-2.22-7.87-8.57-10.31-70.68-26.93-140.57-55.63-213.25-76.91-9.91-2.89-19.93-5.88-30.06-8.09-99.94-22.06-199.89-43.56-299.73-66.17-25.6-5.77-50.98-8.76-77.13-6.87-11.8.88-23.71.77-35.51.22-37.06-1.89-74.02-3.66-111.19-2-13.36.56-26.71.22-40.07-.22-44.854-1.55-89.708-3.21-134.563-4.987-20.368-.775-40.848-.997-61.105-3.103-58.322-6.096-116.645-10.197-175.301-8.534-31.276.887-62.106 3.103-92.714 9.421-15.583 3.213-31.165 6.653-46.747 10.083-3.673.78-8.237 1-8.904 8.2 4.34-.22 8.236.12 11.798-.66 10.907-2.11 21.704-4.88 32.611-7.09 33.836-6.99 67.672-12.972 102.509-11.863 21.482.776 42.963-.443 64.556-.222 11.798.111 23.707.776 35.505 1.663 39.957 2.992 79.803 6.872 119.761 9.312 33.279 2.1 66.67 2.77 100.06 3.77 33.394.99 66.674 1.66 100.064 2.21 24.04.45 48.19 0 72.23.78 27.38.89 54.76 2.66 82.25.66 14.25-.99 29.05.45 43.08 3.44 87.26 18.95 174.19 39.68 261.67 57.63 67.45 13.86 132.78 33.7 197 58.19 33.28 12.75 66.45 25.49 99.73 38.13 3.79 1.77 8.01 2.32 12.02 3.32ZM3071.38 735.934c-2.67-1.22-4.67-2.882-6.23-2.55-3.56.665-7.01 2.217-10.46 3.658-46.86 20.393-93.28 41.895-140.8 60.847-59.66 23.719-117.76 50.762-174.63 80.244-64.45 33.471-128.89 66.943-190.89 104.848-26.04 15.96-50.42 33.579-72.12 55.089-17.59 17.4-37.07 33.25-53.32 51.87-34.28 39.34-68 79.24-100.06 120.36-30.27 38.79-60.32 77.69-95.05 112.72-1.78 1.77-3.23 3.99-4.34 6.32-.44.99.11 3.1 1 3.87.78.78 2.79 1.22 3.9.78 1.67-.55 3.23-1.77 4.45-3.1 19.26-20.95 39.07-41.46 57.43-63.29 21.15-25.16 40.74-51.65 61.44-77.25 23.49-29.04 47.53-57.63 71.35-86.45 5-5.98 10.01-11.97 15.58-17.29 22.82-21.72 45.74-43.22 68.89-64.5 5.35-4.99 11.36-9.43 17.59-13.42 56.1-35.462 113.64-68.269 172.74-98.637 59.66-30.59 118.87-62.067 180.87-88.002 60.1-25.27 119.98-51.094 179.97-76.697 3.01-1.33 6.12-2.66 8.91-4.433 1.33-.887 2.11-2.771 3.78-4.987ZM242.861 1059.68c3.895-6.32.222-9.87-1.781-13.41-49.418-88.448-98.948-176.782-148.366-265.227-3.561-6.429-6.567-13.189-9.015-20.172-6.344-18.62-16.473-34.58-32.166-46.882C35.17 701.243 19.588 687.61.89 678.078c-9.572-4.876-19.144-9.974-27.826-16.181-38.621-27.598-77.243-54.974-115.086-83.569-22.483-16.957-43.296-35.909-59.992-58.852-12.02-16.403-24.486-32.474-37.063-48.545-66.225-84.012-132.45-167.913-198.674-251.813-2.672-3.436-5.788-6.872-9.238-9.421-19.256-14.409-40.069-12.857-61.328-5.209-1.224.443-1.892 2.549-3.673 5.209 3.784.554 6.122 1.33 8.348 1.108 3.339-.332 6.455-1.552 9.794-2.217 21.036-4.433 38.733.111 51.978 18.288 8.459 11.637 17.697 22.721 26.602 34.137 67.671 86.117 135.232 172.235 203.015 258.352 8.681 11.083 17.029 22.61 27.157 32.142 15.583 14.741 31.944 28.706 49.084 41.673 28.939 21.834 58.545 42.893 88.263 63.84 12.02 8.534 24.487 16.847 37.398 23.829 18.364 9.975 34.948 22.167 51.421 34.802 16.584 12.857 28.939 28.373 35.172 48.545 1.558 4.877 3.227 9.864 5.787 14.408 48.417 86.894 96.944 173.676 145.472 260.456 2.894 5.21 5.788 10.31 9.127 15.3 1.335 1.99 3.895 3.32 6.233 5.32ZM2385.54 267.441c-6.12-2.771-9.35 1.219-12.69 3.436-47.42 32.363-94.72 64.837-142.25 97.201-5.78 3.99-9.57 8.755-12.13 15.295-9.9 25.935-20.25 51.648-30.05 77.583-5.56 14.852-11.24 29.703-15.47 44.998-16.7 60.515-32.83 121.252-49.08 181.878-37.85 140.98-75.69 281.849-113.42 422.828-2.23 8.2-3.34 16.63-4.45 25.05-.45 3.1-.23 7.2 1.44 9.53 7.02 9.87 13.69 20.39 22.38 28.71 13.69 12.96 28.93 24.27 43.51 36.24 1.67 1.44 3.46 2.99 5.46 3.77 1.45.55 4.01.44 4.9-.45.78-.88.66-3.65-.12-4.76-1.78-2.33-4.11-4.21-6.45-6.1-10.57-8.75-20.93-17.73-31.83-26.04-10.47-7.98-18.7-17.63-26.27-28.27-4.23-5.98-5.68-11.74-4.12-18.62 2.34-10.08 4.23-20.28 6.9-30.25 53.87-200.501 107.74-400.998 161.72-601.496 1.01-3.879 2.34-7.758 3.79-11.526 12.8-33.029 25.82-66.057 38.51-99.196 2.22-5.874 5.79-9.975 10.91-13.411 12.35-8.202 24.48-16.625 36.73-25.048 34.28-23.386 68.45-46.772 102.62-70.38 3.78-2.549 9.01-4.211 9.46-10.972ZM1461.84 1734.99c1.67 9.42 6.9 7.75 12.02 6.76 40.29-8.43 80.7-16.3 120.76-25.5 40.74-9.42 81.7-18.06 120.66-34.24 89.93-37.13 177.63-78.25 259-132.01 5.56-3.65 11.24-7.31 17.03-10.41 30.27-16.19 56.76-37.69 82.14-60.3 36.28-32.14 71.9-65.06 107.63-97.75 3-2.77 9.34-5.99 5.45-10.31-4.45-5.1-8.57 1-11.8 3.88-22.48 20.28-44.85 40.9-67.23 61.4-40.62 37.24-81.47 74.26-130.44 101.08-16.25 8.87-31.17 19.95-46.75 29.93-4.67 2.99-9.24 6.2-14.13 8.75-59.55 30.81-118.54 62.73-180.98 87.67-24.04 9.64-48.08 19.95-73.13 26.38-47.74 12.19-96.16 21.83-144.24 32.58-18.26 3.99-36.73 7.87-55.99 12.09ZM2104.61 714.543c-1.56-8.091-6.34-7.537-10.02-8.313-13.8-2.66-27.82-4.655-41.51-7.758-35.84-8.091-71.24-17.512-105.74-30.258-4.79-1.773-9.91-3.657-15.02-3.99-22.93-1.551-45.86-3.768-68.9-3.657-46.75.222-93.49 1.552-140.13 2.771-31.5.776-63.11 1.108-94.5 3.435-34.39 2.55-68.56 7.759-102.84 10.862-35.39 3.103-71.01 6.207-106.51 7.204-52.65 1.33-105.3.776-157.94 1.109-3.01 0-6.01-.222-8.91.443-2 .443-3.78 2.328-6.12 3.768 4.68 5.431 9.8 3.99 14.36 3.88 44.85-.333 89.71-1.441 134.68-.998 41.29.332 82.25-2.771 123.21-6.428 63.1-5.653 125.99-15.074 189.54-14.63 9.24.11 18.48-.665 27.83-.887 61.88-1.108 123.77-5.542 185.65.665 9.13.887 18.37 2.66 27.05 5.763 45.97 16.071 92.82 28.485 140.91 36.243 4.56.554 9.23.443 14.91.776Z"/><path class="cls-2" d="M88.04 1130.39c0-2.77.556-5.21-.112-7.2-1.224-3.44-3.227-6.65-4.897-9.87C-4.341 947.071-91.713 780.932-178.863 614.682c-4.118-7.759-7.346-16.182-9.683-24.605-3.784-13.854-6.456-28.041-9.683-42.117-.891-3.768-.334-8.423-5.565-9.642-3.451 4.766-3.562 4.765-2.894 8.423 1.001 5.763 2.337 11.637 3.45 17.401 4.23 23.053 11.464 44.777 22.594 65.613 71.122 134.552 141.8 269.436 212.587 404.205 15.36 29.15 30.608 58.19 45.968 87.34 2.004 3.66 3.117 8.54 10.129 9.09ZM2310.19 901.518c2-1.44 4-2.216 4.78-3.657 9.02-14.852 19.48-29.038 26.38-44.777 10.69-24.383 17.59-49.986 22.37-76.364 7.79-43.225 13.69-86.782 23.82-129.564 12.13-51.094 31.39-99.196 55.65-145.524 22.71-43.225 46.19-85.896 69.23-128.899 1.45-2.55 3.23-5.21 3.79-7.98.33-1.995-1.12-4.323-1.79-6.539-1.89.886-4.22 1.329-5.45 2.659-1.78 1.774-2.78 4.323-4.01 6.65-4.78 8.756-9.57 17.512-14.13 26.379-27.16 52.424-57.54 103.296-81.47 157.494-12.14 27.597-20.71 56.082-28.27 85.009-10.02 37.905-16.14 76.586-22.27 115.267-3.22 20.393-7.12 40.787-12.46 60.737-7.24 26.489-17.81 51.648-34.39 73.925-1.56 2.106-2.79 4.323-3.9 6.65-.67 1.33-1.33 2.993-1 4.212.22 1.441 1.78 2.549 3.12 4.322ZM2875.6 618.118c-2.67-.998-4.67-2.771-6.23-2.328-3.56.887-6.9 2.66-10.13 4.433-77.02 40.455-154.15 81.02-231.18 121.474-63.55 33.472-127.21 66.832-190.77 100.415-3.56 1.884-7.01 4.101-10.24 6.428-.89.665-1.44 3.103-.89 3.879.89 1.219 3.12 2.771 4.23 2.439 3.9-1.109 7.57-2.882 11.13-4.766a1479988.38 1479988.38 0 0 0 421.95-221.778c2.89-1.551 5.9-3.103 8.57-5.098 1.33-.998 2-2.771 3.56-5.098ZM2005.44 1079.96c.45-1 .78-2.11 1.22-3.1-1.33-1.44-2.44-3.55-4.22-4.33-13.92-5.54-28.72-8.31-41.74-.11-19.7 12.31-39.29 25.38-56.99 40.24-23.82 20.06-39.51 46.77-53.31 74.25-41.41 82.58-79.58 166.7-116.2 251.49-1 2.32-2.45 4.65-2.79 7.2-.33 2.11.67 4.32 1.12 6.54.89.22 1.78.33 2.67.55 2.23-3.88 5.01-7.53 6.68-11.64 36.62-84.34 74.46-168.24 115.86-250.37 12.36-24.38 26.49-47.66 46.3-67.27 15.14-15.08 33.28-25.72 50.2-38.24 12.58-9.31 26.05-11.53 40.96-6.65 3.34.89 6.9.89 10.24 1.44ZM2317.42 913.599c-2.11-1.108-4.01-2.77-5.45-2.549-2.01.333-4.01 1.884-5.46 3.436-13.91 14.852-28.6 29.038-41.18 44.887-57.88 72.927-113.75 147.517-174.52 218.227-1.89 2.22-3.79 4.55-5.12 7.21-.67 1.33-.33 4.54.44 4.76 1.67.67 4.57.89 5.79-.11 2.9-2.21 5.12-5.21 7.57-8.09 53.87-62.51 103.85-128.01 154.38-193.18 16.8-21.612 34.17-42.671 53.76-61.956 2.33-2.327 4.67-4.766 6.78-7.315 1.12-1.108 1.79-2.881 3.01-5.32ZM1577.15 1506.34c2-1.67 4.23-2.77 5.34-4.66 2.12-3.43 3.56-7.31 5.12-11.08 46.08-106.51 92.27-213.02 138.35-319.53 3.34-7.76 6.79-15.52 10.13-23.39 1.22-2.99 3.12-6.21-1.89-9.31-1.56 1.44-3.68 2.88-4.79 4.77-2 3.54-3.45 7.31-5.01 11.08-39.51 91.21-78.91 182.54-118.42 273.76-9.35 21.72-18.92 43.33-28.27 65.06-1.67 3.88-4.9 7.75-.56 13.3ZM1174.24 549.179c6.01-4.544 3.34-9.642 2.45-13.854-4.23-18.066.89-32.031 15.69-43.89 18.81-15.073 34.5-33.472 48.75-52.978 3.45-4.766 6.79-9.754 9.01-15.184 7.02-17.845 13.58-35.8 20.15-53.865 2.12-5.875 3.56-11.97 5.34-18.066 6.68-23.94 8.57-48.656 11.24-73.261 3.12-28.263 5.9-56.525 8.57-84.898.45-3.99 2.23-8.756-3.11-12.192-5.34 2.438-4.45 7.315-4.9 11.416-3.56 33.361-7.79 66.832-10.35 100.304-2.89 37.683-13.8 73.15-26.05 108.395-7.01 20.172-18.36 37.905-33.27 53.2a1705.274 1705.274 0 0 1-40.07 39.9c-5.9 5.763-9.8 12.524-9.91 20.393-.22 9.532 1.34 19.064 2.56 28.595.11 2.106 2.34 3.879 3.9 5.985ZM1589.5 1098.69c-1.33-.33-2.67-.66-4-.89-1.78 3.77-4.01 7.32-5.34 11.2-9.13 26.49-16.14 53.97-27.5 79.58-30.38 68.16-58.76 137.21-85.92 206.81-6.12 15.74-10.02 32.48-14.92 48.66-.89 3.1-2.22 6.54 2.01 8.64 5.45-.66 5.34-5.43 6.34-9.09 3.9-13.07 6.68-26.6 11.69-39.23 27.49-70.16 55.87-139.98 86.59-208.92 12.69-28.6 20.81-59.19 30.83-89 .89-2.33.22-5.1.22-7.76ZM2170.61 466.165c4.79-5.431 1.34-11.305.34-16.625-17.48-91.77-35.06-183.54-52.65-275.31-4.23-22.167-8.46-44.222-12.8-66.389-.78-3.768-.44-8.313-7.01-9.42-.56 2.437-1.67 4.765-1.45 6.982.22 3.657 1.12 7.315 1.89 10.861 17.59 92.103 35.29 184.316 52.98 276.419 4.12 21.39 8.24 42.781 12.47 64.172.56 3.658.11 8.423 6.23 9.31ZM1239.68 994.064c5.46-5.32 3.23-11.083 3.01-16.292-3.01-79.357-8.46-158.603-7.13-238.07.23-16.293-1.33-32.585-.33-48.767 1.11-18.509-7.01-33.693-14.69-49.099-1.11-2.217-3.67-3.658-5.46-5.542-.77.444-1.55.776-2.33 1.22.33 2.66.22 5.541 1.11 7.979 1.78 4.877 3.78 9.643 6.23 14.187 4.68 8.645 6.57 17.733 6.57 27.598 0 24.715 1.11 49.431.78 74.258-.89 73.926 4.78 147.63 7.34 221.445.23 3.879-.33 8.202 4.9 11.083ZM1354.32 1163.31c.34-1 .67-2 1-3-2.78-2.1-5.45-4.43-8.45-6.2-5.46-3.11-11.13-5.77-16.59-8.87-17.03-9.64-27.71-23.05-26.15-43.67 1.11-14.85-5.46-25.38-17.92-32.91-10.35-6.21-18.26-14.86-23.71-25.72-2.45-4.99-5.12-9.86-8.13-14.52-1.22-1.88-3.56-2.88-5.23-4.21-4.56 3.66-2.22 6.65-.89 9.53 8.35 17.51 18.37 33.59 36.06 43.67 7.91 4.55 11.69 11.97 11.47 21.28-.11 2.22-.11 4.43 0 6.65.78 13.97 4.45 26.27 15.8 36.24 11.13 9.76 24.38 15.19 36.96 22.06 1.33 1 3.78-.11 5.78-.33ZM2412.36 854.968c-3.23 1.441-6.23 2.661-9.13 4.212a7851.186 7851.186 0 0 0-67.22 36.243c-1.89.997-4.34 1.884-5.57 3.546-1.33 1.774-1.56 4.323-2.22 6.429 2 .332 4.11.997 6.12.886 1.33-.11 2.67-1.108 4-1.773 23.71-12.746 47.42-25.492 71.13-38.348 2.22-1.219 4.34-2.771 6.12-4.655.78-.776.89-2.882.44-3.99-.55-.998-2.22-1.552-3.67-2.55ZM1210.3 632.304c4.45-4.433 1.78-8.201.44-11.748-18.7-48.656-24.93-61.734-32.5-65.613-.22 2.771-1 5.209-.44 7.315 4.23 16.403 26.71 65.059 32.5 70.046Z"/><path class="cls-2" d="M1420.21 1521.19c6.46-2.55 6.57-2.55 8.24-5.65 3.12-5.77 6.23-11.64 9.24-17.52 1.33-2.55 3.45-5.87-.56-7.31-1.67-.56-5.45 1.77-6.68 3.77-3.78 6.2-7.12 12.85-10.12 19.5-.78 2-.12 4.55-.12 7.21Z" fill="#000"/><path class="cls-2" d="M2051.63 1240.78c-1.89 2.66-3.34 5.54-5.45 7.65-66.23 66.16-136.79 126.9-218.93 173.01-22.93 12.85-46.64 24.49-70.57 35.13-49.75 22.06-99.39 44.67-151.37 61.29-27.27 8.76-55.21 14.63-83.7 17.4-39.62 3.77-79.36 3.77-118.87.22-19.48-1.77-39.07-5.54-57.88-10.86-34.72-9.75-68.23-22.94-100.06-39.79-11.68-6.2-22.37-14.4-33.28-22.16-27.38-19.73-53.87-40.12-77.69-64.4-31.27-31.92-64.55-62.06-96.72-93.21-10.13-9.75-19.59-20.17-29.38-30.26a12928.055 12928.055 0 0 0-54.205-55.63c-9.127-9.2-19.255-17.51-27.492-27.38-24.82-29.48-55.651-52.2-86.37-74.7-36.953-27.04-78.134-46.22-122.766-58.19-39.179-10.53-78.691-18.95-118.871-23.05-58.322-5.99-116.645-6.87-175.078 4.32-51.31 9.86-103.177 17.29-153.708 30.81-22.817 6.1-45.078 14.52-67.115 23.06-16.584 6.42-32.167 15.29-48.528 22.16-38.845 16.29-74.35 38.46-110.523 59.41-42.518 24.6-87.15 44.78-135.232 55.42-22.706 4.98-46.302 5.76-69.453 8.75-20.813 2.66-41.404 0-61.995-3.1-28.716-4.32-54.872-15.74-80.137-29.04-26.824-14.19-52.98-29.81-77.022-48.54-13.133-10.31-25.71-21.17-35.616-34.81-4.341-5.98-8.904-11.86-13.69-17.4-30.163-34.58-52.201-74.26-73.571-114.488-16.139-30.48-30.052-61.845-40.737-94.541-5.453-16.736-7.791-34.58-12.02-51.759-9.572-38.681-8.904-77.695-4.007-116.708 7.569-60.072 15.694-120.143 23.819-180.215 1.669-12.413 4.006-24.826 6.566-37.129 9.127-44.777 9.35-90.329 10.797-135.66 1.781-55.971-3.228-111.388-15.137-166.25-1.113-4.988-2.338-10.086-4.23-14.852-23.818-60.293-53.647-117.705-87.261-173.01-14.135-23.276-33.056-42.671-52.534-61.291-26.601-25.492-56.542-46.661-88.263-65.281-22.594-13.189-45.522-26.489-72.235-30.812-4.786-.776-9.46-1.995-14.024-3.436-35.394-10.64-71.345-16.625-108.408-15.406-9.572.333-19.144-1.884-28.716-3.103-3.228-.443-6.901-.554-7.569-4.987 1.559-4.323 5.232-3.658 8.348-3.104 23.93 4.323 48.083 3.104 72.124 4.212a94.454 94.454 0 0 1 17.586 2.327c26.712 6.429 53.313 13.079 79.914 19.729 4.341 1.108 8.571 2.327 12.578 4.211 51.421 23.94 98.391 54.863 139.35 94.098 27.603 26.49 50.865 56.636 68.562 90.883 14.469 27.93 29.272 55.639 43.408 83.68 21.147 41.895 34.503 86.006 39.846 132.889 7.568 65.724 6.01 131.337.668 196.951-2.115 26.045-7.903 51.759-11.576 77.694-7.012 49.764-14.358 99.417-20.479 149.292-3.673 30.036-5.454 60.294-7.903 90.44-2.003 24.273 4.564 47.659 8.682 71.266 7.234 41.895 22.26 81.13 41.849 118.703 14.692 28.151 30.386 55.857 45.857 83.677 2.448 4.55 5.565 8.76 8.793 12.75 10.685 13.74 21.926 27.04 32.166 41.12 15.137 20.94 33.502 38.46 54.872 52.97 35.06 23.72 71.011 46.11 111.525 59.41 28.382 9.31 57.654 13.52 87.706 10.64 8.904-.89 17.697-1.99 26.601-2.55 44.743-2.77 86.259-16.96 126.773-35.02 36.062-16.07 69.007-37.46 103.066-56.86 8.347-4.76 16.917-9.2 25.599-13.41 20.814-9.86 41.85-18.95 62.552-29.04 34.17-16.84 69.898-28.15 106.961-36.91 59.992-14.29 120.874-23.38 181.645-32.69 21.036-3.22 42.963-2.11 64.444-1.77 43.853.77 87.261 5.76 130.335 14.18 43.074 8.54 85.48 19.62 124.992 38.9 22.149 10.87 43.185 24.61 63.108 39.24 30.608 22.72 59.436 47.33 85.814 75.26 30.942 32.8 64.115 63.61 94.275 97.31 3 3.32 6.34 6.2 9.46 9.31 34.5 33.03 69.56 65.5 103.18 99.41 21.03 21.17 44.96 38.46 68.34 56.53 39.95 30.92 86.25 48.88 134 62.84 23.71 6.99 48.31 10.75 73.35 11.97 35.28 1.78 70.57 1.78 105.52-1.99 24.93-2.77 49.97-7.87 73.79-15.63 73.79-23.94 144.36-56.19 213.59-90.99 14.58-7.32 28.49-15.96 42.07-24.83 51.98-33.81 101.17-71.05 145.47-114.71 12.91-12.75 26.27-25.05 39.51-37.47 2.12-2.32 4.79-6.31 10.91-2.1Z" fill="#000"/><path class="cls-2" d="M1852.51 1174.61c-4.01-1-8.23-1.55-12.13-2.99-33.28-12.64-66.45-25.49-99.73-38.13-64.11-24.49-129.55-44.33-197-58.19-87.48-17.95-174.41-38.79-261.67-57.63-14.03-2.99-28.83-4.54-43.08-3.43-27.49 1.99-54.87.22-82.25-.67-24.04-.78-48.19-.33-72.23-.78-33.39-.55-66.67-1.21-100.064-2.21-33.391-1-66.782-1.78-100.061-3.77-39.957-2.44-79.804-6.32-119.761-9.31-11.798-.887-23.707-1.552-35.505-1.663-21.482-.11-43.074.998-64.556.222-34.837-1.219-68.673 4.881-102.509 11.861-10.907 2.21-21.704 4.99-32.611 7.09-3.673.78-7.458.44-11.798.67.667-7.21 5.231-7.43 8.904-8.21 15.582-3.54 31.164-6.87 46.747-10.081 30.608-6.428 61.438-8.534 92.714-9.421 58.768-1.662 117.09 2.439 175.301 8.534 20.257 2.106 40.737 2.328 61.105 3.104 44.855 1.774 89.709 3.434 134.564 4.984 13.36.45 26.71.78 40.07.22 37.06-1.66 74.13.23 111.19 2 11.8.55 23.71.66 35.51-.22 26.15-1.89 51.53 1 77.13 6.87 99.84 22.61 199.78 44.11 299.73 66.17 10.13 2.21 20.04 5.21 30.06 8.09 72.68 21.28 142.68 49.98 213.25 76.92 6.46 2.1 6.46 2.21 8.68 9.97ZM242.861 1059.68c-2.449-2-4.897-3.33-6.344-5.32-3.339-4.88-6.233-10.09-9.127-15.3-48.528-86.78-97.055-173.563-145.472-260.456-2.449-4.433-4.23-9.421-5.788-14.408-6.233-20.172-18.587-35.688-35.171-48.545-16.362-12.746-33.057-24.827-51.422-34.802-12.91-7.093-25.377-15.295-37.397-23.829-29.606-20.948-59.324-41.895-88.263-63.84-17.14-12.967-33.502-26.932-49.084-41.673-10.128-9.643-18.476-21.169-27.158-32.142-67.671-86.007-135.343-172.235-203.015-258.353-8.904-11.305-18.142-22.388-26.601-34.136-13.245-18.288-30.942-22.721-51.978-18.288-3.228.665-6.455 1.884-9.794 2.217-2.226.222-4.675-.554-8.348-1.108 1.781-2.66 2.449-4.766 3.673-5.21 21.259-7.647 42.072-9.199 61.327 5.21 3.451 2.66 6.567 5.985 9.238 9.42 66.336 83.901 132.561 167.802 198.675 251.814 12.577 15.96 25.043 32.031 37.063 48.545 16.807 22.942 37.62 41.895 59.992 58.852 37.843 28.484 76.465 55.971 115.086 83.569 8.682 6.206 18.254 11.305 27.826 16.181 18.699 9.532 34.281 23.165 50.642 35.91 15.694 12.303 25.711 28.263 32.167 46.883a112.838 112.838 0 0 0 9.015 20.171c49.418 88.445 98.948 176.78 148.366 265.228 2.114 3.65 5.899 7.09 1.892 13.41ZM2385.54 267.441c-.45 6.761-5.68 8.423-9.35 10.972-34.17 23.497-68.45 46.883-102.62 70.38-12.25 8.312-24.38 16.846-36.73 25.048-5.12 3.436-8.68 7.537-10.91 13.411-12.69 33.139-25.71 66.167-38.51 99.196-1.45 3.768-2.78 7.647-3.78 11.526-53.99 200.498-107.86 400.995-161.73 601.496-2.67 9.97-4.56 20.17-6.9 30.25-1.56 6.88-.11 12.75 4.12 18.62 7.57 10.64 15.81 20.29 26.27 28.27 10.91 8.31 21.26 17.29 31.83 26.04 2.23 1.89 4.68 3.77 6.46 6.1.78 1.11 1 3.88.11 4.76-.89.89-3.45 1-4.9.45-2-.78-3.67-2.44-5.45-3.77-14.58-11.97-29.83-23.28-43.52-36.24-8.8-8.32-15.36-18.84-22.37-28.71-1.67-2.33-1.79-6.43-1.45-9.53 1.11-8.42 2.34-16.85 4.45-25.05 37.73-140.979 75.58-281.848 113.42-422.828 16.25-60.626 32.39-121.363 49.08-181.878 4.23-15.295 9.8-30.146 15.47-44.998 9.8-25.935 20.15-51.648 30.05-77.583 2.45-6.54 6.35-11.305 12.14-15.295 47.41-32.253 94.83-64.838 142.24-97.201 3.23-2.328 6.46-6.207 12.58-3.436ZM2104.61 714.543c-5.79-.333-10.46-.222-14.91-.887-48.09-7.758-94.94-20.172-140.91-36.243-8.57-2.992-17.92-4.765-27.05-5.763-61.88-6.207-123.77-1.773-185.65-.665-9.24.111-18.59.887-27.83.887-63.66-.554-126.43 8.866-189.54 14.63-40.96 3.657-82.03 6.871-123.21 6.428-44.86-.443-89.71.665-134.68.998-4.56 0-9.68 1.44-14.36-3.88 2.34-1.551 4.01-3.325 6.12-3.768 2.79-.665 5.9-.443 8.91-.443 52.64-.333 105.4.221 157.94-1.109 35.5-.886 71.12-3.99 106.51-7.204 34.39-2.992 68.56-8.312 102.84-10.861 31.39-2.328 63-2.66 94.5-3.436 46.75-1.219 93.38-2.549 140.13-2.771 22.93-.111 45.97 2.106 68.9 3.657 5.12.333 10.12 2.217 15.02 3.99 34.5 12.746 69.9 22.278 105.74 30.258 13.69 3.103 27.71 5.098 41.51 7.758 3.68.887 8.46.333 10.02 8.424Z" fill="#000"/><path class="cls-2" d="M88.04 1130.39c-7.012-.67-8.125-5.54-10.017-9.09-15.471-29.04-30.72-58.19-45.968-87.34-70.9-134.769-141.576-269.653-212.81-404.205-11.019-20.837-18.365-42.671-22.594-65.613-1.113-5.764-2.337-11.527-3.45-17.401-.668-3.658-.446-3.658 2.893-8.423 5.343 1.219 4.786 5.984 5.566 9.642 3.227 14.076 5.899 28.263 9.683 42.117 2.337 8.423 5.565 16.846 9.683 24.605 87.15 166.25 174.522 332.5 261.894 498.638 1.67 3.33 3.673 6.43 4.897 9.87.89 2.1.223 4.43.223 7.2ZM2005.44 1079.96c-3.34-.44-6.9-.55-10.13-1.55-14.91-4.77-28.38-2.55-40.96 6.65-16.91 12.52-35.06 23.27-50.19 38.24-19.7 19.61-33.95 42.89-46.31 67.27-41.4 82.13-79.24 166.03-115.86 250.37-1.78 4.11-4.45 7.76-6.68 11.64-.89-.22-1.78-.33-2.67-.55-.45-2.22-1.45-4.44-1.11-6.54.33-2.44 1.78-4.77 2.78-7.21 36.62-84.78 74.79-168.91 116.2-251.48 13.8-27.48 29.49-54.19 53.31-74.25 17.7-14.97 37.29-27.93 56.99-40.24 13.13-8.2 27.94-5.43 41.74.11 1.67.67 2.78 2.77 4.23 4.33-.45 1.1-.89 2.1-1.34 3.21ZM2317.42 913.599c-1.33 2.439-1.89 4.212-3 5.542-2.12 2.549-4.46 4.987-6.79 7.315-19.48 19.285-36.96 40.343-53.76 61.956-50.53 65.168-100.62 130.668-154.38 193.178-2.45 2.77-4.67 5.77-7.57 8.1-1.22.99-4.12.77-5.78.11-.78-.34-1.12-3.55-.45-4.77 1.22-2.66 3.23-4.99 5.12-7.2 60.77-70.72 116.64-145.31 174.52-218.235 12.58-15.849 27.38-30.036 41.18-44.887 1.45-1.552 3.45-3.215 5.46-3.436 1.56-.444 3.34 1.219 5.45 2.327ZM1577.15 1506.34c-4.34-5.43-1.11-9.31.56-13.19 9.35-21.73 18.92-43.34 28.27-65.06 39.51-91.22 78.91-182.54 118.42-273.76 1.56-3.77 3.01-7.54 5.01-11.08 1.12-2 3.23-3.33 4.79-4.77 5.01 2.99 3.11 6.32 1.89 9.31-3.23 7.87-6.68 15.63-10.13 23.39-46.08 106.51-92.27 213.02-138.35 319.53-1.67 3.77-3.11 7.54-5.12 11.08-1.11 1.66-3.45 2.88-5.34 4.55ZM1174.24 549.179c-1.56-2.106-3.79-3.879-4.01-5.874-1.22-9.532-2.67-19.063-2.56-28.595.11-7.869 4.01-14.63 9.91-20.393a1708.72 1708.72 0 0 0 40.06-39.9c14.92-15.295 26.27-33.029 33.28-53.2 12.25-35.245 23.15-70.823 26.05-108.395 2.56-33.472 6.79-66.833 10.35-100.304.45-4.101-.45-8.978 4.9-11.416 5.34 3.325 3.45 8.091 3.11 12.191-2.78 28.263-5.56 56.636-8.57 84.899-2.67 24.605-4.56 49.321-11.24 73.261-1.67 6.095-3.11 12.191-5.34 18.065-6.57 18.066-13.13 36.021-20.15 53.865-2.11 5.431-5.45 10.419-9.01 15.185-14.25 19.506-29.94 37.794-48.75 52.978-14.81 11.859-19.81 25.824-15.7 43.89 1.01 4.101 3.68 9.199-2.33 13.743ZM1589.5 1098.69c0 2.66.67 5.43-.11 7.76-10.01 29.7-18.14 60.4-30.83 89-30.61 68.94-59.1 138.65-86.59 208.92-5.01 12.63-7.79 26.16-11.69 39.23-1.11 3.66-1 8.43-6.34 9.09-4.23-2.1-3.01-5.54-2-8.64 4.78-16.29 8.79-32.92 14.91-48.66 27.05-69.6 55.54-138.54 85.93-206.81 11.35-25.49 18.36-52.98 27.49-79.58 1.33-3.88 3.56-7.54 5.34-11.2 1.33.34 2.56.56 3.89.89ZM2170.61 466.165c-6.12-.887-5.67-5.653-6.34-9.31-4.23-21.391-8.35-42.782-12.47-64.173-17.69-92.102-35.28-184.315-52.98-276.418-.66-3.657-1.67-7.204-1.89-10.862-.11-2.216.89-4.544 1.45-6.982 6.57 1.108 6.34 5.652 7.01 9.421 4.34 22.056 8.57 44.222 12.8 66.389 17.59 91.77 35.17 183.54 52.65 275.31 1.11 5.32 4.56 11.083-.23 16.625ZM1239.68 994.064c-5.34-2.881-4.67-7.315-4.89-11.083-2.56-73.815-8.24-147.519-7.35-221.445.33-24.716-.89-49.432-.78-74.258 0-9.865-1.89-18.953-6.57-27.598-2.45-4.544-4.45-9.31-6.23-14.187-.89-2.438-.78-5.32-1.11-7.98.78-.443 1.56-.775 2.33-1.219 1.9 1.774 4.46 3.325 5.46 5.542 7.68 15.517 15.8 30.701 14.69 49.099-1 16.182.67 32.474.33 48.767-1.33 79.467 4.12 158.713 7.13 238.07.33 5.209 2.45 11.083-3.01 16.292ZM1354.32 1163.31c-2 .22-4.45 1.33-5.78.55-12.58-6.87-25.83-12.3-36.96-22.06-11.35-9.97-15.02-22.27-15.8-36.24-.11-2.21-.11-4.43 0-6.65.33-9.31-3.45-16.84-11.47-21.28-17.69-9.97-27.71-26.04-36.06-43.67-1.33-2.88-3.67-5.87.89-9.53 1.67 1.33 4.01 2.33 5.23 4.21 3.01 4.66 5.68 9.54 8.13 14.52 5.34 10.87 13.24 19.51 23.71 25.72 12.57 7.53 19.03 18.06 17.92 32.91-1.45 20.62 9.12 34.03 26.15 43.67 5.46 3.11 11.24 5.77 16.59 8.87 3 1.77 5.67 4.1 8.46 6.21-.34.77-.67 1.77-1.01 2.77ZM1210.3 632.304c-5.79-4.987-28.27-53.754-32.5-70.047-.56-2.105.22-4.544.44-7.314 7.57 3.99 13.81 16.957 32.5 65.613 1.34 3.657 4.01 7.315-.44 11.748Z" fill="#000"/></g></symbol><symbol id="3d" viewBox="0 0 26 13"><g fill="none"><path d="M3.087 7C1.77 7.513 1 8.134 1 8.802 1 10.568 6.373 12 13 12s12-1.432 12-3.198c0-.668-.77-1.289-2.087-1.802" fill="none" stroke="currentColor"/><path d="M13.176 0h3.53c1.23 0 2.25.44 3.066 1.32C20.586 2.185 21 3.26 21 4.526s-.414 2.34-1.228 3.22c-.815.866-1.837 1.306-3.066 1.306h-3.53V0Zm1.203 7.915h2.327c.919 0 1.682-.323 2.264-.97.582-.647.88-1.448.88-2.418 0-.97-.298-1.772-.88-2.419-.582-.647-1.345-.97-2.264-.97H14.38v6.777ZM10.69 1.06 8.726 3.713c1.383.258 2.354 1.228 2.354 2.664 0 .88-.298 1.578-.906 2.082-.608.505-1.332.763-2.198.763-1.384 0-2.522-.646-2.975-1.836l1.009-.595c.271.84.918 1.254 1.966 1.254 1.125 0 1.9-.62 1.9-1.668s-.775-1.681-1.9-1.681h-.31l-.48-.738 2.096-2.832H5.259V0h5.431v1.06Z" fill="currentColor"/></g></symbol><symbol id="architecture" viewBox="0 0 1267 170"><g fill="none"><path d="m59.478 0 49.124 170H92.709l-13.966-49.503H28.656L14.93 170H0L49.365 0h10.113Zm-26.97 106.491H74.89L53.7 30.185 32.507 106.49ZM147.199 74.617h20.227c9.151 0 16.616-2.576 22.395-7.728 5.779-5.312 8.669-12.718 8.669-22.216 0-9.337-2.809-16.581-8.428-21.733-5.619-5.312-13.164-7.968-22.636-7.968h-20.227v59.645Zm0 14.005V170h-15.412V.966h35.639c14.449 0 25.927 3.864 34.435 11.59 8.509 7.567 12.763 18.353 12.763 32.359 0 13.845-4.254 24.63-12.763 32.358-8.508 7.566-19.986 11.35-34.435 11.35h-20.227ZM248.378.966l36.12 65.682L320.378.966h16.375l-44.067 80.653L341.569 170h-17.097l-40.214-72.926L244.525 170H228.15l47.92-87.898L231.521.966h16.857ZM366.477 170V.966h15.411V140.54L450.758.966h15.171V170h-15.412V30.426L381.648 170h-15.171ZM490.101.966h99.693v14.006h-42.14V170h-15.412V14.972h-42.141V.966ZM613.865.966h80.188v14.006h-64.776v62.06h64.776v14.005h-64.776v64.957h64.776V170h-80.188V.966ZM830.109 170h-19.746l-70.796-81.62V170h-15.412V.966h15.412v81.86L810.122.967h17.579l-71.76 83.31L830.109 170ZM839.549.966h99.693v14.006h-42.141V170H881.69V14.972h-42.141V.966ZM983.299 170l12.041-36.705L949.105.965h15.653l38.042 109.149L1038.44.966h14.45L997.748 170h-14.449ZM1091.37 74.617h20.22c9.15 0 16.62-2.576 22.4-7.728 5.78-5.312 8.67-12.718 8.67-22.216 0-9.337-2.81-16.581-8.43-21.733-5.62-5.312-13.17-7.968-22.64-7.968h-20.22v59.645Zm0 14.005V170h-15.42V.966h35.64c14.45 0 25.93 3.864 34.44 11.59 8.51 7.567 12.76 18.353 12.76 32.359 0 13.845-4.25 24.63-12.76 32.358-8.51 7.566-19.99 11.35-34.44 11.35h-20.22ZM1217.88 0 1267 170h-15.89l-13.97-49.503h-50.09L1173.33 170h-14.93l49.36-170h10.12Zm-26.97 106.491h42.38l-21.19-76.306-21.19 76.306Z" fill="#F8F0E8"/></g></symbol><symbol id="arrow-diagonal" viewBox="0 0 20 20"><g fill="none"><path display="var(--is-visible--md-up)" d="M3 17 16 3m0 0v10.348M16 3H6.391" stroke="currentColor"/><path display="var(--is-visible--sm-down)" d="M5 15 15 5m0 0v7.391M15 5H7.609" stroke="currentColor"/></g></symbol><symbol id="arrow-down-small" viewBox="0 0 8 5"><g fill="none"><path d="M8 1C6 1 4 3 4 5c0-2-2-4-4-4" stroke="currentColor"/></g></symbol><symbol id="arrow-down" viewBox="0 0 20 20"><g fill="none"><path display="var(--is-visible--md-up)" d="M16 8c-3 0-6 3-6 6 0-3-3-6-6-6" fill="none" stroke="currentColor"/><path display="var(--is-visible--sm-down)" d="M15 9c-2.5 0-5 2.5-5 5 0-2.5-2.5-5-5-5" fill="none" stroke="currentColor"/></g></symbol><symbol id="arrow-left" viewBox="0 0 20 20"><g fill="none"><path d="M12.72 5c0 3.038-2.56 5.5-5.72 5.5 3.16 0 5.72 2.462 5.72 5.5" stroke="currentColor"/></g></symbol><symbol id="arrow-right-lg" viewBox="0 0 30 30"><g fill="none"><path display="var(--is-visible--sm-down)" d="M13 9a6 6 0 0 0 6 6 6 6 0 0 0-6 6" stroke="currentColor"/><path display="var(--is-visible--md-up)" d="M11 3c0 6.627 5.373 12 12 12-6.627 0-12 5.373-12 12" stroke="currentColor"/></g></symbol><symbol id="arrow-right" viewBox="0 0 20 20"><g fill="none"><path d="M8.5 5.5c0 2.25 2.25 4.5 4.5 4.5-2.25 0-4.5 2.25-4.5 4.5" fill="none" stroke="currentColor"/></g></symbol><symbol id="arrow-round" viewBox="0 0 20 20"><g fill="none"><path d="M14.606 13.008a5.5 5.5 0 1 1 .679-4.535" display="var(--is-visible--md-up)" stroke="currentColor" stroke-width="1.5" stroke-linecap="round" stroke-linejoin="round"/><path d="M15.5 4.5v4l-3.969-.493" display="var(--is-visible--md-up)" stroke="currentColor" stroke-width="1.5" stroke-linecap="round" stroke-linejoin="round"/><path d="M13.948 12.578a4.715 4.715 0 1 1 .582-3.887" display="var(--is-visible--sm-down)" stroke="currentColor" stroke-width="1.5" stroke-linecap="round" stroke-linejoin="round"/><path d="M14.714 5.286v3.428l-3.402-.422" display="var(--is-visible--sm-down)" stroke="currentColor" stroke-width="1.5" stroke-linecap="round" stroke-linejoin="round"/></g></symbol><symbol id="arrow-up" viewBox="0 0 20 20"><g fill="none"><path display="var(--is-visible--md-up)" fill="none" d="M16 12c-3 0-6-3-6-6 0 3-3 6-6 6" stroke="currentColor"/><path display="var(--is-visible--sm-down)" fill="none" d="M15 12c-2.5 0-5-2.5-5-5 0 2.5-2.5 5-5 5" stroke="currentColor"/></g></symbol><symbol id="booked" viewBox="0 0 20 20"><g fill="none"><path display="var(--is-visible--sm-down)" d="M6.8 8.545C6.8 6.727 6.8 4 9.5 4s2.7 2.727 2.7 4.545m-7.2 0h9V14H5V8.545Z" stroke="currentColor"/><path display="var(--is-visible--md-up)" d="M5.2 8.727C5.2 5.637 5.2 1 10 1s4.8 4.636 4.8 7.727m-12.8 0h16V18H2V8.727Z" stroke="currentColor"/></g></symbol><symbol id="camera" viewBox="0 0 20 20"><g fill="none"><path fill-rule="evenodd" clip-rule="evenodd" d="M13 6.833A1.833 1.833 0 0 0 11.167 5H4.833A1.833 1.833 0 0 0 3 6.834v6.333A1.834 1.834 0 0 0 4.833 15h6.334A1.833 1.833 0 0 0 13 13.167V6.833Zm-1 0v6.334c0 .46-.373.833-.833.833H4.833A.834.834 0 0 1 4 13.167V6.834c0-.46.373-.834.833-.834h6.334c.46 0 .833.373.833.833Z" fill="currentColor"/><path fill-rule="evenodd" clip-rule="evenodd" d="M17 12.84V7.162a1.165 1.165 0 0 0-1.755-1.008l-2.997 1.748a.5.5 0 0 0-.248.432v3.334c0 .178.095.342.248.432l2.997 1.748A1.166 1.166 0 0 0 17 12.84Zm-1-5.678v5.678a.168.168 0 0 1-.167.167.17.17 0 0 1-.084-.023L13 11.38V8.622l2.75-1.604a.17.17 0 0 1 .167-.001.168.168 0 0 1 .083.145ZM9.833 7.5H8.5a.5.5 0 0 0 0 1h1.333a.5.5 0 0 0 0-1Z" fill="currentColor"/></g></symbol><symbol id="car" viewBox="0 0 20 20"><g fill="none"><path d="M7.5 6.875V8.75h5" stroke="currentColor" stroke-miterlimit="10" stroke-linecap="square"/><path d="M16.25 13.75h1.875l.625-5H12.5L10 5H4.375l-1.25 3.75h-2.5v3.75c0 .688.563 1.25 1.25 1.25h1.25M6.875 13.75H12.5" stroke="currentColor" stroke-miterlimit="10" stroke-linecap="square"/><path d="M5 15.625a1.875 1.875 0 1 0 0-3.75 1.875 1.875 0 0 0 0 3.75ZM14.375 15.625a1.875 1.875 0 1 0 0-3.75 1.875 1.875 0 0 0 0 3.75Z" stroke="currentColor" stroke-miterlimit="10" stroke-linecap="square"/></g></symbol><symbol id="cctv" viewBox="0 0 20 20"><g fill="none"><path d="M18.245 15.8h-4.163c-.523 0-.977-.361-1.095-.87l-.641-2.782M18.026 9.43 4.61 11.928 3.19 4.312l12.312-2.293a1.124 1.124 0 0 1 1.31.9l1.213 6.511ZM1.5 5.445l1.135 6.093" display="var(--is-visible--md-up)" stroke="currentColor" stroke-miterlimit="10" stroke-linecap="square"/><path d="M7.567 7.652a.843.843 0 1 0 0-1.685.843.843 0 0 0 0 1.685ZM18.244 13.271v5.057" display="var(--is-visible--md-up)" stroke="currentColor" stroke-miterlimit="10" stroke-linecap="square"/><path d="M15.684 13.85h-3.122a.843.843 0 0 1-.821-.653l-.481-2.086M15.52 9.073 5.458 10.946 4.395 5.234l9.233-1.72a.843.843 0 0 1 .983.675l.91 4.884ZM3.125 6.084l.851 4.57" display="var(--is-visible--sm-down)" stroke="currentColor" stroke-miterlimit="10" stroke-linecap="square"/><path d="M7.675 7.74a.632.632 0 1 0 0-1.265.632.632 0 0 0 0 1.264ZM15.684 11.954v3.792" display="var(--is-visible--sm-down)" stroke="currentColor" stroke-miterlimit="10" stroke-linecap="square"/></g></symbol><symbol id="close" viewBox="0 0 20 20"><g fill="none"><path display="var(--is-visible--md-up)" d="M2 18 18 2M2 2l16 16" fill="none" stroke="currentColor"/><path display="var(--is-visible--sm-down)" d="M5 15 15 5M5 5l10 10" fill="none" stroke="currentColor"/></g></symbol><symbol id="comagic-callback" viewBox="0 0 50 50"><g fill="none"><path d="m27.41 26.53-1.126 1.408a11.877 11.877 0 0 1-4.221-4.221l1.407-1.126a.957.957 0 0 0 .276-1.134l-1.282-2.889a.956.956 0 0 0-1.115-.537l-2.442.633a.96.96 0 0 0-.71 1.063 14.188 14.188 0 0 0 12.077 12.077.963.963 0 0 0 1.062-.71l.633-2.442a.957.957 0 0 0-.537-1.114l-2.888-1.282a.956.956 0 0 0-1.134.275Z" stroke="currentColor" fill="none" stroke-width="1.5" stroke-miterlimit="10" stroke-linecap="square"/></g></symbol><symbol id="comagic-close" viewBox="0 0 50 50"><g fill="none"><path d="m19.657 19.657 2.828 2.828a4 4 0 0 1 0 5.657l-2.828 2.828M30.97 30.97l-4.242-4.242M30.97 19.657l-4.242 4.242" stroke="currentColor" fill="none" stroke-width="1.5"/></g></symbol><symbol id="comagic-taxi" viewBox="0 0 20 20"><g fill="none"><path display="var(--is-visible--md-up)" fill="currentColor" d="M0 10h4v4H0zM8 10h4v4H8zM4 6h4v4H4zM12 6h4v4h-4zM16 10h4v4h-4z"/><path display="var(--is-visible--sm-down)" fill="currentColor" d="M2.5 10h3v3h-3zM8.5 10h3v3h-3zM5.5 7h3v3h-3zM11.5 7h3v3h-3zM14.5 10h3v3h-3z"/></g></symbol><symbol id="download" viewBox="0 0 20 20"><g fill="none"><path display="var(--is-visible--md-up)" d="M2 18h16M9.994 2v8.885c0 1.782-2.154 2.674-3.414 1.414L3.328 9.047M9.996 15.711l6.666-6.666" stroke="currentColor"/><path display="var(--is-visible--sm-down)" d="M4 16h12M9.996 4v5.457c0 1.782-2.154 2.674-3.414 1.414L4.996 9.285M9.996 14.283l5-5" stroke="currentColor"/></g></symbol><symbol id="embankment" viewBox="0 0 20 20"><g fill="none"><path d="m1 12 1.5-2c.75-1 2.25-1 3 0s2.25 1 3 0 2.25-1 3 0 2.25 1 3 0 2.25-1 3 0l1.5 2M1 8l1.5-2c.75-1 2.25-1 3 0s2.25 1 3 0 2.25-1 3 0 2.25 1 3 0 2.25-1 3 0L19 8M1 16l1.5-2c.75-1 2.25-1 3 0s2.25 1 3 0 2.25-1 3 0 2.25 1 3 0 2.25-1 3 0l1.5 2" stroke="currentColor"/></g></symbol><symbol id="example-arrow" viewBox="0 0 20 20"><g fill="none"><path d="m8 4 6 6-6 6" stroke="currentColor" stroke-width="2" stroke-linecap="round" stroke-linejoin="round" fill="none"/></g></symbol><symbol id="example-close" viewBox="0 0 40 40"><g fill="none"><path display="var(--is-visible--sm-down)" d="M26 14 14 26m0-12 12 12" fill="none" stroke="currentColor" stroke-width="1.2"/><path display="var(--is-visible--md-up)" d="M25 15 15 25m0-10 10 10" fill="none" stroke="currentColor" stroke-width="1.2"/></g></symbol><symbol id="example-password-hide" viewBox="0 0 16 16"><g fill="none"><path stroke="currentColor" fill="none" stroke-linecap="square" stroke-miterlimit="10" stroke-width="1.5" d="M13.558 6.68c.714.728 1.108 1.32 1.108 1.32S12 12 8 12c-.344 0-.677-.03-1-.083m-2.855-1.174A11.116 11.116 0 0 1 1.333 8S4 4 8 4c1.196 0 2.272.358 3.194.859"/><path stroke="currentColor" fill="none" stroke-linecap="square" stroke-miterlimit="10" stroke-width="1.5" d="M10.398 5.5A2.667 2.667 0 1 0 6.5 8.872"/><path stroke="currentColor" fill="none" stroke-width="1.5" d="M2 13 14 3"/></g></symbol><symbol id="example-password" viewBox="0 0 16 16"><g fill="none"><path stroke="currentColor" fill="none" stroke-linecap="square" stroke-miterlimit="10" stroke-width="1.5" d="M1.333 8S4 4 8 4s6.666 4 6.666 4S12 12 8 12 1.333 8 1.333 8Z"/><path stroke="currentColor" fill="none" stroke-linecap="square" stroke-miterlimit="10" stroke-width="1.5" d="M8 9.333A2.667 2.667 0 1 0 8 4a2.667 2.667 0 0 0 0 5.333Z"/></g></symbol><symbol id="example-zoom-in" viewBox="0 0 24 24"><g fill="none"><rect x="9" y="1" width="6" height="22" rx="2" fill="currentColor"/><rect x="1" y="15" width="6" height="22" rx="2" transform="rotate(-90 1 15)" fill="currentColor"/></g></symbol><symbol id="example-zoom-out" viewBox="0 0 24 24"><g fill="none"><rect x="1" y="15" width="6" height="22" rx="2" transform="rotate(-90 1 15)" fill="currentColor"/></g></symbol><symbol id="famous" viewBox="0 0 20 20"><g fill="none"><g clip-path="url(#famous-a)"><path d="m1.487 16.104-.494.072a.5.5 0 0 0 .614.414l-.12-.486ZM17.777.955l.477.15a.5.5 0 0 0-.36-.636l-.117.486Zm-3.48 6.483.011.5a.5.5 0 0 0 .383-.193l-.394-.307ZM11.5 7.5l-.011-.5a.5.5 0 0 0-.389.8l.4-.3Zm1.5 2 .367.34a.5.5 0 0 0 .033-.64l-.4.3Zm-9.643 2.554.433.25-.433-.25Zm13.44 6.86h-.5v1h.5v-1Zm2.617 1h.5v-1h-.5v1Zm-16.484-1h-.5v1h.5v-1Zm11.523 1h.5v-1h-.5v1ZM17.301.804c-.68 2.15-1.824 4.31-3.398 6.326l.788.615c1.641-2.102 2.846-4.368 3.563-6.64l-.953-.3Zm-3.015 6.134L11.49 7l.022 1 2.797-.062-.022-1ZM11.1 7.8l1.5 2 .8-.6-1.5-2-.8.6ZM1.077 19.505c.476-2.47 1.4-4.928 2.713-7.201l-.866-.5C1.558 14.169.593 16.732.095 19.316l.982.19Zm2.713-7.201c1.555-2.694 3.814-5.19 6.324-7.125 2.514-1.938 5.25-3.29 7.75-3.731L17.69.463c-2.703.478-5.586 1.92-8.186 3.924-2.604 2.007-4.953 4.6-6.58 7.417l.866.5Zm13.007 7.61h2.617v-1h-2.617v1ZM12.632 9.161c-2.72 2.949-7.439 5.513-11.264 6.458l.24.97c3.987-.984 8.888-3.638 11.76-6.75l-.736-.678Zm-10.65 6.871C.685 7.105 8.572-.733 17.661 1.442l.233-.973C8.07-1.881-.4 6.599.993 16.176l.99-.143Zm.948 3.882h11.523v-1H2.93v1Z" fill="currentColor"/></g></g></symbol><symbol id="favourite" viewBox="0 0 20 20"><g fill="none"><path display="var(--is-visible--md-up)" fill="none" d="M16.188 5.2a3.781 3.781 0 0 0-5.531 0 4.084 4.084 0 0 0-.656.955 4.057 4.057 0 0 0-.657-.955 3.784 3.784 0 0 0-5.531 0 4.247 4.247 0 0 0 0 5.801l6.188 6.332 6.187-6.33a4.24 4.24 0 0 0 0-5.803Z" stroke="currentColor" stroke-linecap="round" stroke-linejoin="round"/><path display="var(--is-visible--sm-down)" fill="none" d="M14.64 6.4a2.835 2.835 0 0 0-4.147 0 3.064 3.064 0 0 0-.492.716 3.041 3.041 0 0 0-.493-.716 2.838 2.838 0 0 0-4.148 0 3.185 3.185 0 0 0 0 4.35L10 15.5l4.64-4.748a3.18 3.18 0 0 0 0-4.352Z" stroke="currentColor" stroke-linecap="round" stroke-linejoin="round"/></g></symbol><symbol id="feature-bedroom" viewBox="0 0 20 20"><g fill="none"><path d="M19.5 15.5v.5a.5.5 0 0 0 .5-.5h-.5Zm-19 0H0a.5.5 0 0 0 .5.5v-.5Zm0-4V11a.5.5 0 0 0-.5.5h.5Zm19 0h.5a.5.5 0 0 0-.5-.5v.5ZM2 15.5V15H1v.5h1Zm-1 2a.5.5 0 0 0 1 0H1Zm18-2V15h-1v.5h1Zm-1 2a.5.5 0 0 0 1 0h-1Zm-7.403-13V4h-1v.5h1Zm-1 7v.5h1v-.5h-1ZM18 11.403v.5h1v-.5h-1ZM1 11.5v.5h1v-.5H1ZM19.5 15H.5v1h19v-1Zm-19-3h19v-1H.5v1Zm18.5-.5v4h1v-4h-1Zm-18 4v-4H0v4h1Zm0 0v2h1v-2H1Zm17 0v2h1v-2h-1Zm-8.403-11v7h1v-7h-1Zm7.894-.59-15 .084.006 1 15-.085-.006-1ZM19 11.402V5.41h-1v5.994h1ZM1 5.494V11.5h1V5.494H1Zm16.497-.585a.5.5 0 0 1 .503.5h1a1.5 1.5 0 0 0-1.509-1.5l.006 1ZM2.491 3.994A1.5 1.5 0 0 0 1 5.494h1a.5.5 0 0 1 .497-.5l-.006-1Z" display="var(--is-visible--md-up)" fill="currentColor"/><path d="M3.5 8.5v3h13v-3h-13Z" display="var(--is-visible--md-up)" stroke="currentColor" stroke-linejoin="round"/><path d="M17.125 14.125v.5a.5.5 0 0 0 .5-.5h-.5Zm-14.25 0h-.5a.5.5 0 0 0 .5.5v-.5Zm0-3v-.5a.5.5 0 0 0-.5.5h.5Zm14.25 0h.5a.5.5 0 0 0-.5-.5v.5Zm-13 3v-.5h-1v.5h1Zm-1 1.5a.5.5 0 0 0 1 0h-1Zm13.75-1.5v-.5h-1v.5h1Zm-1 1.5a.5.5 0 0 0 1 0h-1Zm-5.302-9.75v-.5h-1v.5h1Zm-1 5.25v.5h1v-.5h-1Zm6.302-.073v.5h1v-.5h-1Zm-12.75.073v.5h1v-.5h-1Zm14 2.5H2.875v1h14.25v-1Zm-14.25-2h14.25v-1H2.875v1Zm13.75-.5v3h1v-3h-1Zm-13.25 3v-3h-1v3h1Zm-.25 0v1.5h1v-1.5h-1Zm12.75 0v1.5h1v-1.5h-1Zm-6.302-8.25v5.25h1v-5.25h-1Zm5.793-.567-10.75.061.006 1 10.75-.06-.005-1Zm1.509 5.744V6.808h-1v4.244h1ZM3.125 6.87v4.256h1V6.869h-1Zm12.247-.56a.5.5 0 0 1 .503.5h1a1.5 1.5 0 0 0-1.508-1.5l.005 1Zm-10.756-.94a1.5 1.5 0 0 0-1.491 1.5h1a.5.5 0 0 1 .497-.5l-.006-1Z" display="var(--is-visible--sm-down)" fill="currentColor"/><path d="M5.125 8.875v2.25h9.75v-2.25h-9.75Z" display="var(--is-visible--sm-down)" stroke="currentColor" stroke-linejoin="round"/></g></symbol><symbol id="feature-catering" viewBox="0 0 16 16"><g fill="none"><path d="M8 1.5v5.833c0 .369.298.667.667.667C9.403 8 10 8.597 10 9.333V13.5a1 1 0 1 0 2 0V9.333C12 8.597 12.597 8 13.333 8A.667.667 0 0 0 14 7.333V1.5m-4 0v5m2-5v5M1 6.013V5a3 3 0 0 1 6 0v1.013C7 7.111 6.11 8 5.013 8A.013.013 0 0 0 5 8.013V13.5a1 1 0 1 1-2 0V8.013A.013.013 0 0 0 2.987 8 1.987 1.987 0 0 1 1 6.013Z" stroke="currentColor"/></g></symbol><symbol id="feature-dou" viewBox="0 0 18 18"><g fill="none"><path d="M15.3 7.499a1.638 1.638 0 0 0-.35.041 6.19 6.19 0 0 0-2.296-3.018A6.372 6.372 0 0 0 9 3.374c-1.31 0-2.587.401-3.654 1.148A6.19 6.19 0 0 0 3.051 7.54a1.59 1.59 0 0 0-1.464.412c-.296.29-.462.683-.462 1.094 0 .41.166.803.461 1.093.296.29.696.453 1.114.453.031 0 .062-.007.093-.009a6.153 6.153 0 0 0 2.139 3.7A6.36 6.36 0 0 0 9 15.75a6.36 6.36 0 0 0 4.068-1.465 6.152 6.152 0 0 0 2.139-3.701c.031 0 .061.01.093.01a1.59 1.59 0 0 0 1.114-.454c.295-.29.461-.683.461-1.093 0-.41-.166-.804-.461-1.094a1.59 1.59 0 0 0-1.114-.453Z" stroke="currentColor" stroke-linecap="round" stroke-linejoin="round"/><path d="M6.75 10.124a1.125 1.125 0 1 0 0-2.25 1.125 1.125 0 0 0 0 2.25ZM11.25 10.124a1.125 1.125 0 1 0 0-2.25 1.125 1.125 0 0 0 0 2.25Z" fill="currentColor"/><path d="M7.344 12.374c.562.563 1.1.563 1.687.563.588 0 1.125 0 1.688-.563M9.193 3.374c-.217 0-.43.069-.622.2-.19.13-.354.32-.474.55-.12.231-.194.496-.216.772a2.12 2.12 0 0 0 .094.811c.083.257.214.483.382.659.167.176.366.296.579.35.212.055.432.04.64-.04.207-.08.396-.225.549-.42" stroke="currentColor" stroke-linecap="round" stroke-linejoin="round"/></g></symbol><symbol id="feature-high-ceiling" viewBox="0 0 20 20"><g fill="none"><path display="var(--is-visible--sm-down)" d="M10 5.714v8.572m0-8.572 2.143 2.143M10 5.714 7.857 7.857M10 14.286l2.143-2.143M10 14.286l-2.143-2.143M4 3.625h12M4 16.375h12" fill="none" stroke="currentColor" stroke-linecap="round"/><path display="var(--is-visible--md-up)" d="M10 4.286v11.428m0-11.428 2.857 2.857M10 4.286 7.143 7.143M10 15.714l2.857-2.857M10 15.714l-2.857-2.857M2 1.5h16m-16 17h16" fill="none" stroke="currentColor" stroke-linecap="round"/></g></symbol><symbol id="feature-terrace" viewBox="0 0 20 20"><g fill="none"><path d="M7.097 11.5h6M10.097 17.5v-5.416M1.597 14.5v3" display="var(--is-visible--md-up)" stroke="currentColor" stroke-miterlimit="10" stroke-linecap="round"/><path d="m.847 10 .75 4.5h4v3" display="var(--is-visible--md-up)" stroke="currentColor" stroke-miterlimit="10" stroke-linecap="round" stroke-linejoin="round"/><path d="M18.597 14.5v3" display="var(--is-visible--md-up)" stroke="currentColor" stroke-miterlimit="10" stroke-linecap="round"/><path d="m19.346 10-.75 4.5h-4v3" display="var(--is-visible--md-up)" stroke="currentColor" stroke-miterlimit="10" stroke-linecap="round" stroke-linejoin="round"/><path d="m18.43 6.5-8.333-4.833L1.764 6.5H18.43Z" display="var(--is-visible--md-up)" stroke="currentColor" stroke-miterlimit="10" stroke-linejoin="round"/><path d="M10.097 6.833V12" display="var(--is-visible--md-up)" stroke="currentColor" stroke-miterlimit="10" stroke-linecap="round"/><path d="M7.822 10.125h4.5M10.072 14.625v-4.063M3.697 12.375v2.25" display="var(--is-visible--sm-down)" stroke="currentColor" stroke-miterlimit="10" stroke-linecap="round"/><path d="m3.135 9 .562 3.375h3v2.25" display="var(--is-visible--sm-down)" stroke="currentColor" stroke-miterlimit="10" stroke-linecap="round" stroke-linejoin="round"/><path d="M16.447 12.375v2.25" display="var(--is-visible--sm-down)" stroke="currentColor" stroke-miterlimit="10" stroke-linecap="round"/><path d="m17.01 9-.563 3.375h-3v2.25" display="var(--is-visible--sm-down)" stroke="currentColor" stroke-miterlimit="10" stroke-linecap="round" stroke-linejoin="round"/><path d="m16.322 6.375-6.25-3.625-6.25 3.625h12.5Z" display="var(--is-visible--sm-down)" stroke="currentColor" stroke-miterlimit="10" stroke-linejoin="round"/><path d="M10.072 6.625V10.5" display="var(--is-visible--sm-down)" stroke="currentColor" stroke-miterlimit="10" stroke-linecap="round"/></g></symbol><symbol id="feature-top-floor" viewBox="0 0 20 20"><g fill="none"><path d="M1.5 16.5h4v-5h4v-4h4v-4h4M17.5 11.5l-5 5m5-5v4m0-4h-4" display="var(--is-visible--md-up)" stroke="currentColor" stroke-linecap="round" stroke-linejoin="round"/><path d="M3.625 14.875h3v-3.75h3v-3h3v-3h3M15.625 11.125l-3.75 3.75m3.75-3.75v3m0-3h-3" display="var(--is-visible--sm-down)" stroke="currentColor" stroke-linecap="round" stroke-linejoin="round"/></g></symbol><symbol id="feature-white-box" viewBox="0 0 20 20"><g fill="none"><path display="var(--is-visible--md-up)" d="M10 13.5h-.5a1 1 0 0 0-1 1v4a1 1 0 0 0 1 1h1a1 1 0 0 0 1-1v-4a1 1 0 0 0-1-1H10Zm0 0v-1a1 1 0 0 1 1-1h7.5a1 1 0 0 0 1-1v-4a1 1 0 0 0-1-1h-1m0 0v2a1 1 0 0 1-1 1h-13a1 1 0 0 1-1-1v-2m15 0v-2a1 1 0 0 0-1-1h-13a1 1 0 0 0-1 1v2m0 0h-1" stroke="currentColor" stroke-linecap="round"/><path d="M10.5 13.125h-.125a1 1 0 0 0-1 1v2.5a1 1 0 0 0 1 1h.25a1 1 0 0 0 1-1v-2.5a1 1 0 0 0-1-1H10.5Zm0 0v-.5a1 1 0 0 1 1-1h5.125a1 1 0 0 0 1-1v-2.5a1 1 0 0 0-1-1h-.5m0 0v1.25a1 1 0 0 1-1 1h-9.25a1 1 0 0 1-1-1v-1.25m11.25 0v-1.25a1 1 0 0 0-1-1h-9.25a1 1 0 0 0-1 1v1.25m0 0h-.75" stroke="currentColor" stroke-linecap="round" display="var(--is-visible--sm-down)"/></g></symbol><symbol id="feature-window" viewBox="0 0 20 20"><g fill="none"><path d="M15.597 7.5h-11M10.097 2.23v12.231" display="var(--is-visible--md-up)" stroke="currentColor"/><path d="M15.597 17.556V2.5h-11v15.056" display="var(--is-visible--md-up)" stroke="currentColor" stroke-linejoin="round"/><path d="m1.597 17.5 17 .068V12.5l-17-.068V17.5ZM7.597 12.869V17.5m2.5-4.361V17.5m3-4.774v4.631" display="var(--is-visible--md-up)" stroke="currentColor" stroke-linejoin="round"/><path d="M19.097 11.355a.5.5 0 1 0-1 0h1Zm0 1.757v-1.757h-1v1.757h1ZM2.097 11.288a.5.5 0 0 0-1 0h1Zm0 1.756v-1.756h-1v1.756h1Z" display="var(--is-visible--md-up)" fill="currentColor"/><path d="M14.197 8.125h-8.25M10.072 4.173v9.173" display="var(--is-visible--sm-down)" stroke="currentColor"/><path d="M14.197 15.667V4.375h-8.25v11.292" display="var(--is-visible--sm-down)" stroke="currentColor" stroke-linejoin="round"/><path d="m3.697 15.625 12.75.05v-3.8l-12.75-.05v3.8ZM8.197 12.152v3.473m1.876-3.27v3.27m2.25-3.58v3.473" display="var(--is-visible--sm-down)" stroke="currentColor" stroke-linejoin="round"/><path d="M16.947 11.017a.5.5 0 0 0-1 0h1Zm0 1.317v-1.317h-1v1.317h1ZM4.197 10.966a.5.5 0 0 0-1 0h1Zm0 1.317v-1.317h-1v1.317h1Z" display="var(--is-visible--sm-down)" fill="currentColor"/></g></symbol><symbol id="food" viewBox="0 0 20 20"><g fill="none"><path d="M5.5 18.5V11m0 0a3.601 3.601 0 0 1-3.581-3.978l.267-2.538a3.332 3.332 0 0 1 6.628 0l.267 2.538A3.601 3.601 0 0 1 5.5 11Zm13-9.5v7.167c0 .736-.597 1.333-1.334 1.333a.667.667 0 0 0-.666.667V17a1.5 1.5 0 1 1-3 0v-6.333a.667.667 0 0 0-.667-.667A1.333 1.333 0 0 1 11.5 8.667V1.5M14 8V1.5M16 8V1.5" stroke="currentColor" stroke-linecap="round"/></g></symbol><symbol id="full-screen" viewBox="0 0 20 20"><g fill="none"><path d="M4 11.5V16h4.5M4 8.5V4h4.5m7.5 7.5V16h-4.5M16 8.5V4h-4.5" stroke="currentColor"/></g></symbol><symbol id="gallery" viewBox="0 0 20 20"><g fill="none"><path d="M.5 14.5a2 2 0 0 0 2 2h15a2 2 0 0 0 2-2v-2m-19 2v-9a2 2 0 0 1 2-2h15a2 2 0 0 1 2 2v7m-19 2 3.59-3.23a2 2 0 0 1 2.752.072l.408.408M9 13.5l-1.75-1.75m0 0 4.336-4.336a2 2 0 0 1 2.828 0L19.5 12.5" stroke="currentColor" stroke-linejoin="round"/></g></symbol><symbol id="lock" viewBox="0 0 20 20"><g fill="none"><g clip-path="url(#lock-a)"><path d="M7 9c0-2 0-5 3-5s3 3 3 5M5 9h10v6H5V9Z" stroke="currentColor" stroke-width="1.5"/></g></g></symbol><symbol id="logo-xs" viewBox="0 0 44 15"><g fill="none"><path fill="currentColor" d="M12.001 11.46h-.252c-.524 2.044-2.119 3.034-5.434 3.034H3.777V.758h3.042c2.832 0 3.818 1.433 4.154 2.529h.252L10.931.253H0v.295c.797.063 1.427.19 1.427 1.264V13.44c0 1.074-.63 1.2-1.427 1.264V15h11.666L12 11.46Z"/><path fill="currentColor" d="M41.752 13.42 35.982 0h-.251l-5.644 13.146c-.44 1.032-.881 1.56-1.51 1.56-2.35 0-.798-7.143-6.274-7.143V7.48c2.56 0 4.972-1.011 4.972-3.497 0-2.486-2.35-3.73-5.874-3.73h-6.568v.296c.798.063 1.427.19 1.427 1.264v1.475h2.35V.758h2.539c2.748 0 3.692 1.39 3.692 3.16 0 1.897-1.09 3.224-3.692 3.224h-7.805c-4.784 0-5.56-.337-5.77-2.296h-.252v5.098h.252c.21-1.96.986-2.297 5.77-2.297h2.916v5.794c0 1.074-.63 1.2-1.427 1.264V15h5.204v-.295c-.798-.084-1.427-.19-1.427-1.264V7.647h1.364c6.399 0 2.245 7.353 8.162 7.353h4.175v-.295c-1.973 0-1.826-.948-1.196-2.444l1.654-3.897h4.507l1.518 3.687c.44 1.074 1.091 2.57-.881 2.654V15h5.623v-.295c-.903-.084-1.364-.316-1.784-1.285Zm-8.769-5.562 2.074-4.886 2.011 4.886h-4.085Z"/></g></symbol><symbol id="logo" viewBox="0 0 89 30"><g fill="none"><path d="M24.275 22.921h-.509c-1.06 4.087-4.286 6.068-10.992 6.068H7.64V1.517h6.154c5.73 0 7.724 2.865 8.403 5.056h.51L22.11.506H0v.59c1.613.126 2.886.379 2.886 2.528v23.258c0 2.149-1.273 2.402-2.886 2.528V30h23.596l.68-7.079Z" fill="currentColor"/><path d="M84.454 26.84 72.783 0h-.51L60.858 26.292c-.89 2.065-1.782 3.118-3.055 3.118-4.754 0-1.613-14.284-12.69-14.284v-.168c5.178 0 10.058-2.023 10.058-6.995 0-4.971-4.753-7.457-11.883-7.457H30.004v.59c1.613.126 2.886.379 2.886 2.528v2.949h4.753V1.517h5.135c5.56 0 7.47 2.78 7.47 6.32 0 3.792-2.207 6.447-7.47 6.447H26.991c-9.677 0-11.247-.674-11.671-4.593h-.51v10.197h.51c.424-3.919 1.994-4.593 11.67-4.593h5.9v11.587c0 2.149-1.273 2.402-2.886 2.528V30h10.525v-.59c-1.613-.168-2.886-.38-2.886-2.528V15.295h2.758C53.346 15.295 44.942 30 56.912 30h8.445v-.59c-3.99 0-3.692-1.896-2.42-4.887l3.346-7.796H75.4l3.07 7.374c.89 2.149 2.207 5.14-1.783 5.31V30h11.374v-.59c-1.825-.168-2.759-.632-3.607-2.57ZM66.716 15.716l4.194-9.772 4.069 9.772h-8.263Z" fill="currentColor"/></g></symbol><symbol id="mail" viewBox="0 0 20 20"><g fill="none"><path display="var(--is-visible--md-up)" d="M18 6.667V15H2V9.444m16-2.777V5H2v1.667l8 3.181 8-3.181Z" stroke="currentColor"/><path display="var(--is-visible--sm-down)" d="M16 7v6.25H4V9.083M16 7V5.75H4V7l6 2.386L16 7Z" stroke="currentColor"/></g></symbol><symbol id="map-arch" viewBox="0 0 16 18"><g fill="none"><path d="M14 17V7A6 6 0 0 0 2 7v10h12Z" stroke="currentColor"/><path d="M11 17V7a3 3 0 0 0-6 0v10h6Z" stroke="currentColor"/></g></symbol><symbol id="map-dumbbell" viewBox="0 0 16 16"><g fill="none"><path d="M4.5 12.5v-10M2.5 10.5v-6M.5 7.5h2M11.5 12.5v-10M13.5 10.5v-6M15.5 7.5h-2M4.5 7.5h7" stroke="currentColor" stroke-linecap="round" stroke-linejoin="round"/></g></symbol><symbol id="map-flower" viewBox="0 0 16 16"><g fill="none"><path d="M4.773 3.519A7.06 7.06 0 0 1 8.5.5a7.445 7.445 0 0 1 3.713 3.026" stroke="currentColor" stroke-linecap="round" stroke-linejoin="round"/><path d="M8.5 6.929s-2.8-4.286-7-4.286v5.714a7.073 7.073 0 0 0 7 7.143 7.073 7.073 0 0 0 7-7.143V2.643c-4.2 0-7 4.286-7 4.286Z" stroke="currentColor" stroke-linecap="round" stroke-linejoin="round"/></g></symbol><symbol id="map-labyrinth" viewBox="0 0 18 18"><g fill="none"><path d="M1 1v7.932M12.814 17H1V8.932M17 17v-4.32M5.354 5.387V1H17v11.68m-4.186-7.292v3.544H1m16 3.747H7.008" stroke="currentColor" stroke-linecap="round" stroke-linejoin="round"/></g></symbol><symbol id="map-park" viewBox="0 0 16 16"><g fill="none"><path d="M.5 13.5h9M1.5 13.5v2M12.5 15.5v-8M7.5 8.5h-5v3h5v-3ZM8.5 13.5v2M14.31 4.756c.126-.407.19-.83.19-1.256 0-1.657-.895-3-2-3s-2 1.343-2 3c0 .426.063.85.189 1.256a5.45 5.45 0 0 0-.69 2.744c0 2.209 1.12 4 2.5 4 1.382 0 2.5-1.791 2.5-4a5.45 5.45 0 0 0-.688-2.744Z" stroke="currentColor" stroke-linecap="round" stroke-linejoin="round"/></g></symbol><symbol id="map-playground" viewBox="0 0 16 16"><g fill="none"><path d="M6.5 8.5h2l5 7h2M10.5 11.3v4.2M3.5 6.5a1 1 0 1 0 0-2 1 1 0 0 0 0 2Z" stroke="currentColor" stroke-linecap="round" stroke-linejoin="round"/><path d="M.5 15.5v-12l3-3 3 3v12M.5 8.5h6M.5 12.5h6" stroke="currentColor" stroke-linecap="round" stroke-linejoin="round"/></g></symbol><symbol id="map-store" viewBox="0 0 16 16"><g fill="none"><path d="M13.5 8.5v7h-11v-7" stroke="currentColor" stroke-miterlimit="10" stroke-linecap="round" stroke-linejoin="round"/><path d="M6.5 15.5v-4h3v4M15.5 6.5H.5l2-3.5V.5h11V3l2 3.5Z" stroke="currentColor" stroke-miterlimit="10" stroke-linecap="round" stroke-linejoin="round"/></g></symbol><symbol id="map-tennis" viewBox="0 0 16 16"><g fill="none"><path d="m4.276 5.508 5.754 5.754M13.9 7a4.37 4.37 0 0 0-1.168-4.195c-1.8-1.8-4.69-1.82-6.975.465-1.868 1.87-2.191 4.08-1.312 5.81l-3.7 3.03a.658.658 0 0 0-.048.974l1.762 1.762a.66.66 0 0 0 .974-.048l3.03-3.7a4.474 4.474 0 0 0 4.042-.032" stroke="currentColor" stroke-linecap="round" stroke-linejoin="round"/><path d="M13 13.5a2.5 2.5 0 1 0 0-5 2.5 2.5 0 0 0 0 5Z" stroke="currentColor" stroke-linecap="round" stroke-linejoin="round"/></g></symbol><symbol id="map-tree" viewBox="0 0 16 16"><g fill="none"><path d="M12.642 7.514A3.46 3.46 0 0 0 13 6a3.489 3.489 0 0 0-3.046-3.454A2.5 2.5 0 0 0 5 3c0 .168.018.335.05.5H5a3 3 0 0 0-3 3c.003.456.11.905.314 1.312A2.492 2.492 0 0 0 3.5 12.5h9a2.496 2.496 0 0 0 .142-4.986ZM8 8.5v7M5.5 15.5h5" stroke="currentColor" stroke-linecap="round" stroke-linejoin="round"/></g></symbol><symbol id="map-walk" viewBox="0 0 16 16"><g fill="none"><path d="M8.152 6.152 10.5 8.5l2-1M5.5 6.5l-2 1v2M9.5 10.5l1 1v4M5.5 15.5 8.672 4.321M9.5 4.5a2 2 0 1 0 0-4 2 2 0 0 0 0 4Z" stroke="currentColor" stroke-linecap="round" stroke-linejoin="round"/></g></symbol><symbol id="menu-close" viewBox="0 0 20 20"><g fill="none"><path display="var(--is-visible--md-up)" d="M4 16 16 4M4 4l12 12" fill="none" stroke="currentColor"/><path display="var(--is-visible--sm-down)" d="M5 15 15 5M5 5l10 10" fill="none" stroke="currentColor"/></g></symbol><symbol id="menu" viewBox="0 0 20 20"><g fill="none"><path display="var(--is-visible--md-up)" d="M0 8h20M0 12h20" fill="none" stroke="currentColor"/><path display="var(--is-visible--sm-down)" d="M2 8h16M2 12h16" fill="none" stroke="currentColor"/></g></symbol><symbol id="minimize" viewBox="0 0 20 20"><g fill="none"><path d="M11.5 16v-4.5H16M8.5 16v-4.5H4M11.5 4v4.5H16M8.5 4v4.5H4" stroke="currentColor"/></g></symbol><symbol id="minus" viewBox="0 0 30 30"><g fill="none"><path d="M5 15h20" stroke="#051936"/></g></symbol><symbol id="monastery" viewBox="0 0 20 20"><g fill="none"><path d="M10 2v2.75M10 18v-5.25m0-5.25h5m-5 0H5m5 0v5.25m0-5.25V4.75m0 8L7.5 11.5m2.5 1.25L12.5 14M10 4.75h2m-2 0H8" stroke="currentColor"/></g></symbol><symbol id="music" viewBox="0 0 20 20"><g fill="none"><path d="M6.647 16.167A2.828 2.828 0 0 1 3.824 19 2.828 2.828 0 0 1 1 16.167a2.829 2.829 0 0 1 2.824-2.834 2.829 2.829 0 0 1 2.823 2.834Zm0 0V4.833L17 2v12.278m0 0a2.828 2.828 0 0 1-2.823 2.833 2.828 2.828 0 0 1-2.824-2.833 2.829 2.829 0 0 1 2.824-2.834A2.828 2.828 0 0 1 17 14.278Z" stroke="currentColor"/></g></symbol><symbol id="mute" viewBox="0 0 20 20"><g fill="none"><path display="var(--is-visible--md-up)" d="M7 6.923 15 2v16l-8-4.923m0-6.154v6.154m0-6.154H4v6.154h3M18 15 2 5" fill="none" stroke="currentColor"/><path display="var(--is-visible--sm-down)" d="m7.75 7.692 6-3.692v12l-6-3.692m0-4.616v4.616m0-4.616H5.5v4.616h2.25M16 13.75 4 6.25" fill="none" stroke="currentColor"/></g></symbol><symbol id="park" viewBox="0 0 20 20"><g fill="none"><path d="M10 14a5 5 0 1 0 4.964-8.6 5.001 5.001 0 0 0-9.928 0A5.001 5.001 0 1 0 10 14Zm0 0v6m0-6v-2.5M10 6v3m0 2.5L7 10m3 1.5V9m0 0 3-1.5" stroke="currentColor"/></g></symbol><symbol id="pause" viewBox="0 0 20 20"><g fill="none"><path display="var(--is-visible--md-up)" d="M13 18V2M7 18V2" fill="none" stroke="currentColor"/><path display="var(--is-visible--sm-down)" d="M12 16V4M8 16V4" fill="none" stroke="currentColor"/></g></symbol><symbol id="pdf" viewBox="0 0 30 30"><g fill="none"><path display="var(--is-visible--md-up)" d="M4.36 10.6h3.048c.78 0 1.416.264 1.932.78s.78 1.152.78 1.92c0 .756-.264 1.404-.78 1.92S8.188 16 7.408 16H5.476v3H4.36v-8.4Zm1.116 4.356h1.932c.468 0 .852-.156 1.152-.468.3-.324.456-.72.456-1.188 0-.96-.684-1.656-1.608-1.656H5.476v3.312ZM12.039 10.6h3.276c1.14 0 2.088.408 2.844 1.224.756.804 1.14 1.8 1.14 2.976s-.384 2.172-1.14 2.988c-.756.804-1.704 1.212-2.844 1.212h-3.276v-8.4Zm1.116 7.344h2.16c.851 0 1.56-.3 2.1-.9.54-.6.816-1.344.816-2.244 0-.9-.277-1.644-.817-2.244-.54-.6-1.248-.9-2.1-.9h-2.16v6.288ZM26.088 10.6v1.056h-3.72v2.724h3.564v1.056h-3.564V19h-1.116v-8.4h4.836Z" fill="currentColor"/><path display="var(--is-visible--sm-down)" d="M7.02 11.7h2.287c.585 0 1.061.198 1.448.585.387.387.585.864.585 1.44 0 .567-.197 1.053-.585 1.44-.387.387-.863.585-1.448.585h-1.45V18h-.836v-6.3Zm.838 3.267h1.449c.35 0 .639-.117.864-.35.225-.244.341-.54.341-.892 0-.72-.512-1.242-1.205-1.242h-1.45v2.484ZM12.78 11.7h2.456c.855 0 1.566.306 2.133.918.567.603.855 1.35.855 2.232 0 .882-.288 1.63-.855 2.241-.567.603-1.278.91-2.133.91H12.78v-6.3Zm.836 5.508h1.62c.64 0 1.17-.225 1.575-.675.405-.45.612-1.008.612-1.683s-.207-1.233-.612-1.683c-.405-.45-.936-.675-1.575-.675h-1.62v4.716ZM23.316 11.7v.792h-2.79v2.043H23.2v.792h-2.673V18h-.837v-6.3h3.627Z" fill="currentColor"/></g></symbol><symbol id="play" viewBox="0 0 20 20"><g fill="none"><path display="var(--is-visible--md-up)" d="M18.286 10.429 5.429 19V1.857l12.857 8.572Z" fill="none" stroke="currentColor"/><path display="var(--is-visible--sm-down)" d="M15.905 10.714 7.334 16.43V5l8.571 5.714Z" fill="none" stroke="currentColor"/></g></symbol><symbol id="plus" viewBox="0 0 30 30"><g fill="none"><path d="M5 15h20M15 25V5" stroke="#051936"/></g></symbol><symbol id="river" viewBox="0 0 20 20"><g fill="none"><path d="m17 14.5 1.61-4.43a1 1 0 0 0-.722-1.317l-5.719-1.27a10 10 0 0 0-4.338 0l-5.719 1.27a1 1 0 0 0-.723 1.318L3 14.5m13.5-6v-4a1 1 0 0 0-1-1h-11a1 1 0 0 0-1 1v4m9-4.5V1.5a1 1 0 0 0-1-1h-3a1 1 0 0 0-1 1V4M1 16.75l1.5-2c.75-1 2.25-1 3 0s2.25 1 3 0 2.25-1 3 0 2.25 1 3 0 2.25-1 3 0l1.5 2m-1.5 1c-.75-1-2.25-1-3 0s-2.25 1-3 0-2.25-1-3 0-2.25 1-3 0-2.25-1-3 0" stroke="currentColor"/></g></symbol><symbol id="share" viewBox="0 0 20 20"><g fill="none"><path display="var(--is-visible--md-up)" d="M11.57 6.091 6.431 8.66M11.57 13.91 6.431 11.34M14.25 7.75a3 3 0 1 0 0-6 3 3 0 0 0 0 6ZM14.25 18.25a3 3 0 1 0 0-6 3 3 0 0 0 0 6ZM3.75 13a3 3 0 1 0 0-6 3 3 0 0 0 0 6Z" stroke="currentColor" stroke-linecap="round" stroke-linejoin="round"/><path display="var(--is-visible--sm-down)" d="M10.677 6.818 6.824 8.744M10.677 12.682l-3.853-1.926M12.688 8.063a2.25 2.25 0 1 0 0-4.5 2.25 2.25 0 0 0 0 4.5ZM12.688 15.938a2.25 2.25 0 1 0 0-4.5 2.25 2.25 0 0 0 0 4.5ZM4.813 12a2.25 2.25 0 1 0 0-4.5 2.25 2.25 0 0 0 0 4.5Z" stroke="currentColor" stroke-linecap="round" stroke-linejoin="round"/></g></symbol><symbol id="shopping" viewBox="0 0 20 20"><g fill="none"><path d="M12.5 6.5V3a2.5 2.5 0 0 0-5 0v3.5m-2.92 11h10.84a1 1 0 0 0 .997-1.077l-.846-11a1 1 0 0 0-.997-.923H5.426a1 1 0 0 0-.997.923l-.846 11A1 1 0 0 0 4.58 17.5Z" stroke="currentColor" stroke-linecap="round"/></g></symbol><symbol id="slider-autumn" viewBox="0 0 16 16"><g fill="none"><path d="M10.877 15.111c-1.153 0-2.175-.473-2.878-.916-.703.443-1.724.916-2.877.916-2.015 0-3.615-1.45-3.681-1.511a.331.331 0 0 1 0-.49 6.61 6.61 0 0 1 2.106-1.229 5.803 5.803 0 0 1-.855-.702C.818 9.305.679 6.467.674 6.347A.335.335 0 0 1 1.021 6c.088.004 1.948.097 3.652 1.114a5.786 5.786 0 0 1-.007-.28c0-3.69 2.975-6.617 3.101-6.74a.333.333 0 0 1 .464 0c.127.123 3.102 3.05 3.102 6.74 0 .09-.003.184-.008.28C13.03 6.097 14.89 6.004 14.977 6a.333.333 0 0 1 .348.347c-.006.12-.145 2.958-2.018 4.832a5.88 5.88 0 0 1-.855.703 6.613 6.613 0 0 1 2.106 1.228.33.33 0 0 1 0 .49c-.067.062-1.666 1.511-3.681 1.511Zm-2.878-1.648a.33.33 0 0 1 .186.057c.626.422 1.6.925 2.692.925 1.277 0 2.402-.704 2.924-1.09-.43-.318-1.267-.85-2.261-1.028a.334.334 0 0 1-.093-.624c.511-.258.98-.594 1.388-.996 1.308-1.307 1.682-3.198 1.786-4.002-.706.092-2.249.396-3.495 1.347a.333.333 0 0 1-.533-.312c.05-.35.073-.638.073-.907 0-2.824-1.979-5.255-2.667-6.015-.688.76-2.666 3.19-2.666 6.015 0 .269.023.557.072.908a.335.335 0 0 1-.532.312c-1.25-.954-2.79-1.256-3.495-1.348.105.806.482 2.7 1.785 4.003.409.402.877.737 1.389.995a.334.334 0 0 1-.093.625c-.994.179-1.832.71-2.261 1.027.52.386 1.647 1.09 2.924 1.09 1.091 0 2.066-.502 2.691-.924A.33.33 0 0 1 8 13.463Z" fill="currentColor"/><path d="M8 15.971a.333.333 0 0 1-.334-.333V5.749a.333.333 0 1 1 .667 0v9.889a.333.333 0 0 1-.334.333Z" fill="currentColor"/><path d="M7.986 13.68a.335.335 0 0 1-.236-.097l-2.653-2.652a.333.333 0 0 1 .472-.472l2.417 2.417 2.43-2.43a.333.333 0 0 1 .472.47l-2.667 2.667a.332.332 0 0 1-.235.098Z" fill="currentColor"/></g></symbol><symbol id="slider-left" viewBox="0 0 30 30"><g fill="none"><path display="var(--is-visible--sm-down)" d="M12.48 11.333c0 2.025-1.707 3.667-3.813 3.667m0 0c2.106 0 3.814 1.642 3.814 3.667M8.667 15H21" fill="none" stroke="currentColor"/><path display="var(--is-visible--md-xxl)" d="M11.22 9.5c0 3.038-2.56 5.5-5.72 5.5m0 0c3.16 0 5.72 2.462 5.72 5.5M5.5 15H24" fill="none" stroke="currentColor"/><path display="var(--is-visible--xxxl)" d="M9.961 7.666c0 4.05-3.415 7.333-7.628 7.333m0 0c4.213 0 7.628 3.284 7.628 7.334m-7.628-7.334H27" fill="none" stroke="currentColor"/></g></symbol><symbol id="slider-right" viewBox="0 0 30 30"><g fill="none"><path display="var(--is-visible--md-xxl)" d="M18.78 10c0 3.038 2.56 5.5 5.72 5.5m0 0c-3.16 0-5.72 2.462-5.72 5.5m5.72-5.5H6" fill="none" stroke="currentColor"/><path display="var(--is-visible--sm-down)" d="M17.52 11.333c0 2.025 1.707 3.667 3.813 3.667m0 0c-2.106 0-3.814 1.641-3.814 3.666M21.333 15H9" fill="none" stroke="currentColor"/><path display="var(--is-visible--xxxl)" d="M20.039 7.666c0 4.05 3.415 7.333 7.628 7.333m0 0c-4.213 0-7.628 3.284-7.628 7.334m7.628-7.334H3" fill="none" stroke="currentColor"/></g></symbol><symbol id="slider-spring" viewBox="0 0 16 18"><g fill="none"><path d="M12.17 8.46c0 3.56-1.898 5.884-4.239 5.884-2.34 0-4.238-2.324-4.238-5.884C3.693 4.9 7.931 1 7.931 1s4.239 3.9 4.239 7.46ZM7.932 8.445v8.721" stroke="currentColor" stroke-miterlimit="10" stroke-linecap="round" stroke-linejoin="round"/></g></symbol><symbol id="slider-summer" viewBox="0 0 18 18"><g fill="none"><path d="M12.147 9a3.147 3.147 0 1 1-6.295.001 3.147 3.147 0 0 1 6.295 0ZM9 1v1.883M14.658 3.342l-1.332 1.332M17 9h-1.883M14.658 14.658l-1.332-1.331M9 17v-1.883M3.344 14.658l1.331-1.331M1 9h1.883M3.344 3.342l1.331 1.332" stroke="currentColor" stroke-miterlimit="10" stroke-linecap="round" stroke-linejoin="round"/></g></symbol><symbol id="slider-winter" viewBox="0 0 18 18"><g fill="none"><path d="M8.824.818v16M5.98 1.27l2.813 2.812M11.605 1.27 8.793 4.082M6.012 16.438l2.812-2.813M11.636 16.438l-2.813-2.813M16.809 8.834h-16M16.354 5.99l-2.812 2.813M16.354 11.615l-2.812-2.812M1.19 6.022l2.813 2.812M1.19 11.646l2.813-2.812M3.71 3.72l10.198 10.198M3.71 13.918 13.908 3.72" stroke="currentColor" stroke-miterlimit="10" stroke-linecap="round" stroke-linejoin="round"/></g></symbol><symbol id="sort" viewBox="0 0 10 10"><g fill="none"><path d="m1 3 4 4 4-4" stroke="currentColor"/></g></symbol><symbol id="sport" viewBox="0 0 20 20"><g fill="none"><path d="M.5 11h2m17 0h-2m-15 0V8.5m0 2.5v2.5m15-2.5V8.5m0 2.5v2.5M4.5 11v4.5m0-4.5V6.5m0 4.5h11m0 0v4.5m0-4.5V6.5" stroke="currentColor" stroke-linecap="round"/></g></symbol><symbol id="vig" viewBox="0 0 16 16"><g fill="none"><circle cx="8" cy="8" r="8" fill="currentColor"/><path fill-rule="evenodd" clip-rule="evenodd" d="M10.296 5.5a.833.833 0 1 0 0-1.666.833.833 0 0 0 0 1.667Zm-5.212.834h-1.25l2.083 5h1.254l2.083-5h-1.25l-1.46 3.504-1.46-3.504Zm5.836 0H9.67v5h1.25v-5Z" fill="#051936"/></g></symbol><symbol id="volume" viewBox="0 0 20 20"><g fill="none"><path display="var(--is-visible--md-up)" d="M7 6.923 15 2v16l-8-4.923m0-6.154v6.154m0-6.154H4v6.154h3" fill="none" stroke="currentColor"/><path display="var(--is-visible--sm-down)" d="M7.455 7.692 14 4v12l-6.545-3.692m0-4.616v4.616m0-4.616H5v4.616h2.455" fill="none" stroke="currentColor"/></g></symbol><symbol id="walk" viewBox="0 0 20 20"><g fill="none"><path d="m9.502 7.127 3.833 2.875 2.5-.833" stroke="currentColor" stroke-miterlimit="10"/><path d="m6.668 7.5-1.667.833-.833 2.5M10.836 12.5l1.667 1.667v4.166M10.42 5a2.083 2.083 0 1 0 0-4.166 2.083 2.083 0 0 0 0 4.167Z" stroke="currentColor" stroke-miterlimit="10" stroke-linecap="square"/><path d="M6.668 19.168 10.011 4.96" stroke="currentColor" stroke-miterlimit="10"/></g></symbol></svg>