<?xml version="1.0" encoding="UTF-8"?>
<svg id="Capa_1" xmlns="http://www.w3.org/2000/svg" version="1.1" xmlns:xlink="http://www.w3.org/1999/xlink" viewBox="0 0 1280 251">
  <!-- Generator: Adobe Illustrator 29.0.0, SVG Export Plug-In . SVG Version: 2.1.0 Build 186)  -->
  <defs>
    <style>
      .st0 {
        fill: url(#Degradado_sin_nombre_3287);
      }

      .st1 {
        fill: url(#Degradado_sin_nombre_3281);
      }

      .st2 {
        fill: url(#Degradado_sin_nombre_328);
      }

      .st3 {
        fill: url(#Degradado_sin_nombre_3286);
      }

      .st4 {
        fill: url(#Degradado_sin_nombre_3282);
      }

      .st5 {
        fill: url(#Degradado_sin_nombre_3284);
      }

      .st6 {
        fill: url(#Degradado_sin_nombre_3285);
      }

      .st7 {
        fill: url(#Degradado_sin_nombre_3283);
      }
    </style>
    <linearGradient id="Degradado_sin_nombre_328" data-name="Degradado sin nombre 328" x1="69.9" y1="217" x2="69.9" y2="37.7" gradientUnits="userSpaceOnUse">
      <stop offset=".2" stop-color="#e5e3e5"/>
      <stop offset=".8" stop-color="#a9a9ab"/>
    </linearGradient>
    <linearGradient id="Degradado_sin_nombre_3281" data-name="Degradado sin nombre 328" x1="256.7" y1="216.6" x2="256.7" y2="38" xlink:href="#Degradado_sin_nombre_328"/>
    <linearGradient id="Degradado_sin_nombre_3282" data-name="Degradado sin nombre 328" x1="422.7" y1="216.7" x2="422.7" y2="37.9" xlink:href="#Degradado_sin_nombre_328"/>
    <linearGradient id="Degradado_sin_nombre_3283" data-name="Degradado sin nombre 328" x1="588.7" y1="216.6" x2="588.7" y2="38" xlink:href="#Degradado_sin_nombre_328"/>
    <linearGradient id="Degradado_sin_nombre_3284" data-name="Degradado sin nombre 328" x1="744.4" y1="214.3" x2="744.4" y2="40.4" xlink:href="#Degradado_sin_nombre_328"/>
    <linearGradient id="Degradado_sin_nombre_3285" data-name="Degradado sin nombre 328" x1="891" y1="214.3" x2="891" y2="40.4" xlink:href="#Degradado_sin_nombre_328"/>
    <linearGradient id="Degradado_sin_nombre_3286" data-name="Degradado sin nombre 328" x1="1053.9" y1="216.6" x2="1053.9" y2="38" xlink:href="#Degradado_sin_nombre_328"/>
    <linearGradient id="Degradado_sin_nombre_3287" data-name="Degradado sin nombre 328" x1="1219.9" y1="216.7" x2="1219.9" y2="37.9" xlink:href="#Degradado_sin_nombre_328"/>
  </defs>
  <path class="st2" d="M139.8,40v177h-1L19.6,84.7v129.9H0V37.7h1.1l119.1,132.2V40h19.6Z"/>
  <path class="st1" d="M167.3,127.5c0-49.3,40.2-89.5,89.3-89.5s89.4,40.2,89.4,89.5-40.2,89.1-89.5,89.1-89.2-40.1-89.2-89.1ZM326.2,127.4c0-38.3-31.3-69.7-69.7-69.7s-69.4,31.4-69.4,69.7,31.2,69.4,69.4,69.4,69.7-31.2,69.7-69.4Z"/>
  <path class="st4" d="M362.5,183.3l15.1-11.1c7.9,14.9,25.7,24.8,44.1,24.8s41.3-12.3,41.3-29.4-24.9-28.9-47.1-37.3c-21.4-8.3-45.2-18.8-45.2-45.6s24.1-46.7,54.6-46.7,43.4,14.1,49.8,31.3l-14.8,9.9c-5.6-13.1-19.6-21.9-35.3-21.9s-34.6,12.3-34.6,27.8,19.1,23,41.5,31.6c26.1,10.6,50.8,22.7,50.8,50.6s-27.7,49.5-61.2,49.5-50.8-14.9-59.1-33.4Z"/>
  <path class="st7" d="M499.3,127.5c0-49.3,40.2-89.5,89.3-89.5s89.4,40.2,89.4,89.5-40.2,89.1-89.5,89.1-89.2-40.1-89.2-89.1ZM658.2,127.4c0-38.3-31.3-69.7-69.7-69.7s-69.4,31.4-69.4,69.7,31.2,69.4,69.4,69.4,69.7-31.2,69.7-69.4Z"/>
  <path class="st5" d="M804.7,59.9h-50.4v154.5h-19.6V59.9h-50.6v-19.4h120.6v19.4Z"/>
  <path class="st6" d="M929.2,214.3l-48.5-67.8h-32.5v67.8h-19.6V40.4c-.1,0,51.2,0,51.2,0,32.3,0,58.6,24.8,58.6,55.4s-15.4,42-36.6,48.3l51.7,70.1h-24.3ZM880.5,130c20.7,0,37.8-15.7,37.8-34.5s-17.3-35.6-37.8-35.6h-32.4v70h32.4Z"/>
  <path class="st3" d="M964.5,127.5c0-49.3,40.2-89.5,89.3-89.5s89.4,40.2,89.4,89.5-40.2,89.1-89.5,89.1-89.2-40.1-89.2-89.1ZM1123.4,127.4c0-38.3-31.3-69.7-69.7-69.7s-69.4,31.4-69.4,69.7,31.2,69.4,69.4,69.4,69.7-31.2,69.7-69.4Z"/>
  <path class="st0" d="M1159.7,183.3l15.1-11.1c7.9,14.9,25.7,24.8,44.1,24.8s41.3-12.3,41.3-29.4-24.9-28.9-47.1-37.3c-21.4-8.3-45.2-18.8-45.2-45.6s24.1-46.7,54.6-46.7,43.4,14.1,49.8,31.3l-14.8,9.9c-5.6-13.1-19.6-21.9-35.3-21.9s-34.6,12.3-34.6,27.8,19.1,23,41.5,31.6c26.1,10.6,50.8,22.7,50.8,50.6s-27.7,49.5-61.2,49.5-50.8-14.9-59.1-33.4Z"/>
</svg>