<?xml version="1.0" encoding="UTF-8"?>
<svg id="Capa_1" xmlns="http://www.w3.org/2000/svg" version="1.1" xmlns:xlink="http://www.w3.org/1999/xlink" viewBox="0 0 1279 251">
  <!-- Generator: Adobe Illustrator 29.0.0, SVG Export Plug-In . SVG Version: 2.1.0 Build 186)  -->
  <defs>
    <style>
      .st0 {
        fill: url(#degradado_13);
      }

      .st1 {
        fill: url(#degradado_11);
      }

      .st2 {
        fill: url(#degradado_1);
      }

      .st3 {
        fill: url(#degradado_12);
      }
    </style>
    <linearGradient id="degradado_1" data-name="degradado 1" x1="260" y1="95.6" x2="387.8" y2="95.6" gradientUnits="userSpaceOnUse">
      <stop offset="0" stop-color="#ddd"/>
      <stop offset=".8" stop-color="#a1a1a1"/>
    </linearGradient>
    <linearGradient id="degradado_11" data-name="degradado 1" x1="416.6" x2="506.6" xlink:href="#degradado_1"/>
    <linearGradient id="degradado_12" data-name="degradado 1" x1="690.8" x2="780.7" xlink:href="#degradado_1"/>
    <linearGradient id="degradado_13" data-name="degradado 1" x1="791" y1="95" x2="912.7" y2="95" xlink:href="#degradado_1"/>
  </defs>
  <path class="st2" d="M288.7,1.1c14.6,0,27.9,2.4,40.1,7.2,12.1,4.8,22.6,11.4,31.3,19.8,8.7,8.5,15.5,18.5,20.4,30,4.9,11.5,7.3,24,7.3,37.5s-2.4,25.7-7.3,37.3c-4.9,11.5-11.7,21.5-20.4,30-8.7,8.5-19.2,15.1-31.3,20s-25.5,7.3-40.1,7.3h-28.6V1.1h28.6ZM288.7,174.4c12.2,0,23.3-2,33.2-6.1,9.9-4.1,18.4-9.6,25.4-16.6s12.4-15.3,16.2-24.9c3.8-9.6,5.7-19.9,5.7-31.1s-1.9-21.9-5.7-31.5c-3.8-9.6-9.2-18-16.2-25-7-7-15.5-12.5-25.4-16.5-9.9-4-21-6-33.2-6h-11.3v157.7h11.3Z"/>
  <path class="st1" d="M416.6,1.1h89.9v15.7h-72.6v69.4h72.6v15.7h-72.6v72.6h72.6v15.7h-89.9V1.1Z"/>
  <path class="st3" d="M690.8,1.1h17.3v173.3h72.6v15.7h-89.9V1.1Z"/>
  <path class="st0" d="M857.7,0l55.1,190.1h-17.8l-15.7-55.3h-56.2l-15.4,55.3h-16.7L846.3,0h11.3ZM827.4,119.1h47.5l-23.8-85.3-23.8,85.3Z"/>
</svg>