<?xml version="1.0" encoding="UTF-8"?>
<svg id="Capa_1" xmlns="http://www.w3.org/2000/svg" version="1.1" xmlns:xlink="http://www.w3.org/1999/xlink" viewBox="0 0 805.9 241">
  <!-- Generator: Adobe Illustrator 29.0.0, SVG Export Plug-In . SVG Version: 2.1.0 Build 186)  -->
  <defs>
    <style>
      .st0 {
        fill: url(#degradado_13);
      }

      .st1 {
        fill: url(#degradado_11);
      }

      .st2 {
        fill: url(#degradado_14);
      }

      .st3 {
        fill: url(#degradado_1);
      }

      .st4 {
        fill: url(#degradado_12);
      }
    </style>
    <linearGradient id="degradado_1" data-name="degradado 1" x1="0" y1="97.2" x2="200.9" y2="97.2" gradientUnits="userSpaceOnUse">
      <stop offset="0" stop-color="#ddd"/>
      <stop offset=".8" stop-color="#a1a1a1"/>
    </linearGradient>
    <linearGradient id="degradado_11" data-name="degradado 1" x1="231.4" x2="321.3" xlink:href="#degradado_1"/>
    <linearGradient id="degradado_12" data-name="degradado 1" x1="346.4" y1="98.7" x2="457.1" y2="98.7" xlink:href="#degradado_1"/>
    <linearGradient id="degradado_13" data-name="degradado 1" x1="483.3" y1="97.1" x2="680.9" y2="97.1" xlink:href="#degradado_1"/>
    <linearGradient id="degradado_14" data-name="degradado 1" x1="709.3" x2="805.9" xlink:href="#degradado_1"/>
  </defs>
  <path class="st3" d="M105,149.3h-9.5L39.7,35.1l-23,156.6H0L28.1,2.7h13.5l58.9,120.4L159.3,2.7h13.5l28.1,189h-17.3l-23.2-156.3-55.4,113.9Z"/>
  <path class="st1" d="M231.4,2.7h89.9v15.7h-72.6v69.4h72.6v15.7h-72.6v72.6h72.6v15.7h-89.9V2.7Z"/>
  <path class="st4" d="M457.1,136.9c0,38.5-18.5,57.8-55.4,57.8s-55.3-19.3-55.3-57.8v-5.1h17.3v5.1c0,13.7,3.1,24.1,9.3,31.3,6.2,7.2,15.8,10.8,28.8,10.8s22.5-3.6,28.8-10.8c6.2-7.2,9.3-17.6,9.3-31.3V2.7h17.3v134.2Z"/>
  <path class="st0" d="M483.3,97.2c0-13.5,2.4-26.1,7.3-37.9,4.9-11.8,11.6-22,20.2-30.8,8.6-8.7,19-15.7,31-20.8,12.1-5.1,25.4-7.7,40-7.7s27.9,2.6,40,7.7c12.1,5.1,22.5,12.1,31.3,20.8,8.8,8.7,15.7,19,20.5,30.8,4.9,11.8,7.3,24.4,7.3,37.9s-2.4,25.9-7.3,37.7c-4.9,11.8-11.7,22.1-20.5,30.8-8.8,8.7-19.3,15.7-31.3,20.8-12.1,5.1-25.4,7.7-40,7.7s-27.4-2.5-39.4-7.6c-12.1-5-22.5-12-31.2-20.8-8.7-8.8-15.6-19.1-20.5-30.9-5-11.8-7.4-24.3-7.4-37.7ZM581.8,178.5c11.7,0,22.5-2.1,32.4-6.4,9.9-4.2,18.4-10,25.7-17.3,7.2-7.3,12.8-15.9,16.9-25.9,4-9.9,6.1-20.5,6.1-31.7s-1.9-22-5.8-32c-3.9-9.9-9.4-18.6-16.5-25.9-7.1-7.3-15.7-13.1-25.6-17.3-10-4.2-21-6.4-33.1-6.4s-23.1,2.1-33.1,6.4-18.5,10-25.7,17.3c-7.1,7.3-12.6,15.9-16.6,25.9-4,9.9-5.9,20.6-5.9,32s2,22,5.9,31.8c4,9.8,9.5,18.4,16.6,25.7,7.1,7.3,15.7,13.1,25.7,17.3s21,6.4,33.1,6.4Z"/>
  <path class="st2" d="M730.3,100.7h-3.8v91h-17.3V2.7h40c16.2,0,29.1,4.3,38.6,12.8,9.5,8.6,14.3,20.7,14.3,36.3s-4.7,27.2-14.2,35.8c-9.5,8.6-22.1,12.9-37.9,13.1l55.9,91h-19.7l-55.9-91ZM726.6,85.1h22.7c10.3,0,18.6-2.9,25.1-8.8,6.5-5.8,9.7-14.1,9.7-24.7s-3.2-18.6-9.5-24.4c-6.3-5.8-14.8-8.8-25.4-8.8h-22.7v66.7Z"/>
</svg>