<?xml version="1.0" encoding="UTF-8"?>
<svg id="Capa_1" xmlns="http://www.w3.org/2000/svg" version="1.1" xmlns:xlink="http://www.w3.org/1999/xlink" viewBox="0 0 861.5 180">
  <!-- Generator: Adobe Illustrator 29.0.0, SVG Export Plug-In . SVG Version: 2.1.0 Build 186)  -->
  <defs>
    <style>
      .st0 {
        fill: url(#degradado_15);
      }

      .st1 {
        fill: url(#degradado_13);
      }

      .st2 {
        fill: url(#degradado_16);
      }

      .st3 {
        fill: url(#degradado_11);
      }

      .st4 {
        fill: url(#degradado_14);
      }

      .st5 {
        fill: url(#degradado_1);
      }

      .st6 {
        fill: url(#degradado_12);
      }
    </style>
    <linearGradient id="degradado_1" data-name="degradado 1" x1="0" y1="89.9" x2="170.5" y2="89.9" gradientUnits="userSpaceOnUse">
      <stop offset="0" stop-color="#ddd"/>
      <stop offset=".8" stop-color="#a1a1a1"/>
    </linearGradient>
    <linearGradient id="degradado_11" data-name="degradado 1" x1="181.5" y1="89.6" x2="294.2" y2="89.6" xlink:href="#degradado_1"/>
    <linearGradient id="degradado_12" data-name="degradado 1" x1="317.5" y1="90.1" x2="400.7" y2="90.1" xlink:href="#degradado_1"/>
    <linearGradient id="degradado_13" data-name="degradado 1" x1="425.5" y1="90.1" x2="441.5" y2="90.1" xlink:href="#degradado_1"/>
    <linearGradient id="degradado_14" data-name="degradado 1" x1="480" y1="90.1" x2="598.2" y2="90.1" xlink:href="#degradado_1"/>
    <linearGradient id="degradado_15" data-name="degradado 1" x1="607.2" y1="89.6" x2="720" y2="89.6" xlink:href="#degradado_1"/>
    <linearGradient id="degradado_16" data-name="degradado 1" x1="743.2" y1="90.1" x2="861.5" y2="90.1" xlink:href="#degradado_1"/>
  </defs>
  <path class="st5" d="M149.5,41.1c-6.5-8.1-14.5-14.5-24.1-19.3-9.6-4.8-21.1-7.2-34.6-7.2s-21.1,2-30.2,5.9c-9.2,3.9-17,9.3-23.6,16.2-6.6,6.9-11.7,14.8-15.4,24-3.7,9.1-5.5,18.9-5.5,29.5s1.8,20.4,5.4,29.5c3.6,9.1,8.7,17.1,15.2,23.8,6.6,6.8,14.5,12.1,23.6,16.1,9.2,3.9,19.3,5.9,30.5,5.9s15.2-1,22-2.9c6.8-1.9,13.1-4.6,18.9-7.9s10.8-7.3,15.2-12c4.4-4.6,8.1-9.7,11.1-15.2l12.5,7.5c-3.8,6.5-8.3,12.5-13.5,18-5.2,5.5-11,10.2-17.6,14.2-6.6,4-14,7.1-22.1,9.4-8.2,2.2-17,3.4-26.5,3.4s-25.3-2.3-36.4-7c-11.1-4.7-20.7-11.1-28.8-19.2-8.1-8.2-14.4-17.7-18.9-28.6C2.2,114,0,102.4,0,90.1s2.2-24.2,6.8-35.1c4.5-10.9,10.8-20.4,18.9-28.5s17.7-14.5,28.8-19.2C65.5,2.4,77.6,0,90.8,0s30,3,41.4,8.9c11.4,5.9,21,13.4,28.9,22.4l-11.5,9.8Z"/>
  <path class="st3" d="M243.2,1.6l51,176h-16.5l-14.5-51.2h-52l-14.2,51.2h-15.5L232.7,1.6h10.5ZM215.2,111.8h44l-22-79-22,79Z"/>
  <path class="st6" d="M317.5,2.6h16v160.5h67.2v14.5h-83.2V2.6Z"/>
  <path class="st1" d="M441.5,2.6v175h-16V2.6h16Z"/>
  <path class="st4" d="M506.5,2.6c13.5,0,25.9,2.2,37.1,6.6,11.2,4.4,20.9,10.5,29,18.4,8.1,7.8,14.4,17.1,18.9,27.8,4.5,10.7,6.8,22.2,6.8,34.8s-2.2,23.8-6.8,34.5c-4.5,10.7-10.8,19.9-18.9,27.8-8.1,7.8-17.8,14-29,18.5s-23.6,6.8-37.1,6.8h-26.5V2.6h26.5ZM506.5,163.1c11.3,0,21.6-1.9,30.8-5.6,9.2-3.8,17-8.9,23.5-15.4s11.5-14.2,15-23,5.2-18.4,5.2-28.8-1.8-20.2-5.2-29.2c-3.5-8.9-8.5-16.7-15-23.2-6.5-6.5-14.3-11.6-23.5-15.3-9.2-3.7-19.4-5.5-30.8-5.5h-10.5v146h10.5Z"/>
  <path class="st0" d="M669,1.6l51,176h-16.5l-14.5-51.2h-52l-14.2,51.2h-15.5L658.5,1.6h10.5ZM641,111.8h44l-22-79-22,79Z"/>
  <path class="st2" d="M769.7,2.6c13.5,0,25.9,2.2,37.1,6.6,11.2,4.4,20.9,10.5,29,18.4,8.1,7.8,14.4,17.1,18.9,27.8,4.5,10.7,6.8,22.2,6.8,34.8s-2.2,23.8-6.8,34.5c-4.5,10.7-10.8,19.9-18.9,27.8-8.1,7.8-17.8,14-29,18.5s-23.6,6.8-37.1,6.8h-26.5V2.6h26.5ZM769.7,163.1c11.3,0,21.6-1.9,30.8-5.6,9.2-3.8,17-8.9,23.5-15.4s11.5-14.2,15-23,5.2-18.4,5.2-28.8-1.8-20.2-5.2-29.2c-3.5-8.9-8.5-16.7-15-23.2-6.5-6.5-14.3-11.6-23.5-15.3-9.2-3.7-19.4-5.5-30.8-5.5h-10.5v146h10.5Z"/>
</svg>