<?xml version="1.0" encoding="UTF-8"?>
<svg id="Capa_1" xmlns="http://www.w3.org/2000/svg" version="1.1" viewBox="0 0 16 16">
  <!-- Generator: Adobe Illustrator 29.0.0, SVG Export Plug-In . SVG Version: 2.1.0 Build 186)  -->
  <defs>
    <style>
      .st0 {
        fill: #fff;
      }
    </style>
  </defs>
  <path class="st0" d="M8.4,0h1c3.2.7,5.7,3.2,6.4,6.3l.2,1.3v.9l-.3,1.7c-.7,2.7-3.2,5.1-6,5.7s-.8,0-1.2.2h-1c-.4,0-.8,0-1.2-.2C3.2,15.2.7,12.5.1,9.3v-1C0,8.1,0,7.9,0,7.7.2,3.6,3.4.3,7.6,0h.9ZM3.1,13.9c4.5,3.7,11.2,1.4,12.5-4.3S11.5-1,5.8.6-1.7,10,3.1,13.9Z"/>
  <path class="st0" d="M12,2v6.2c-.1,2.1-1.9,3.8-4,3.8v-2c1.1,0,2-.9,2-1.9s0-.4,0-.5c0-1.8,0-3.7,0-5.5h2Z"/>
  <path class="st0" d="M8,4v2c-.7,0-1.4.4-1.8,1s-.2.5-.2.6v2.3h-2v-2.4c0-.1.1-.7.2-.8.5-1.5,2.1-2.8,3.8-2.7Z"/>
  <rect class="st0" x="4" y="12" width="2" height="2"/>
</svg>