<?xml version="1.0" encoding="UTF-8"?>
<svg id="Capa_1" xmlns="http://www.w3.org/2000/svg" version="1.1" viewBox="0 0 205 30">
  <!-- Generator: Adobe Illustrator 29.0.0, SVG Export Plug-In . SVG Version: 2.1.0 Build 186)  -->
  <defs>
    <style>
      .st0 {
        fill: #fff;
      }
    </style>
  </defs>
  <path class="st0" d="M0,0h5.1l5.5,18.3L17.5,1.3h.2l6.8,17.1L30,0h5.1l-9.5,30h-.4l-7.7-17.9-7.6,17.9h-.4L0,0Z"/>
  <path class="st0" d="M40.5,0h4.7v30h-4.7V0Z"/>
  <path class="st0" d="M71.1,25.3v4.7h-18V0h4.7v25.3h13.3Z"/>
  <path class="st0" d="M146.4,25.5h-14.2l-2,4.5h-5.1L139.2,0h.3l14.1,30h-5.1l-2-4.5ZM144.6,21.6l-5.3-11.5-5.3,11.5h10.5Z"/>
  <path class="st0" d="M175.4,30l-8.1-11.6h-3.7v11.6h-4.7V0S168.3,0,168.3,0c5.6,0,10.1,4.3,10.1,9.6s-2.5,7.2-5.9,8.4l8.7,12h-5.8ZM168.4,14.5c2.8,0,5.2-2.3,5.2-4.9s-2.4-4.9-5.2-4.9h-4.7v9.8h4.7Z"/>
  <path class="st0" d="M205,4.7h-8.2v25.3h-4.8V4.7h-8.2V0h21.3v4.7Z"/>
  <path class="st0" d="M81.7,25.3V0h-4.7v30h12l.8-1.5,1.7-3.2h-9.8Z"/>
  <path class="st0" d="M118.7,0h-20.2l-2.5,4.7h15.2l-11.1,20.6-2.5,4.7h20.5l2.5-4.7h-15.5L118.7,0Z"/>
</svg>