<?xml version="1.0" encoding="UTF-8"?>
<svg id="Capa_1" xmlns="http://www.w3.org/2000/svg" version="1.1" viewBox="0 0 2000 2000">
  <!-- Generator: Adobe Illustrator 29.0.0, SVG Export Plug-In . SVG Version: 2.1.0 Build 186)  -->
  <defs>
    <style>
      .st0 {
        fill: #fff;
      }

      .st1 {
        fill: none;
        stroke: #fff;
        stroke-miterlimit: 10;
        stroke-width: 4px;
      }
    </style>
  </defs>
  <g>
    <path class="st0" d="M998.9,1900.2L99.8,1001.1,1001.1,99.8l899.1,899.1-901.3,901.3h0ZM102.6,1001.1l896.2,896.2,898.5-898.5L1001.1,102.6,102.6,1001.1Z"/>
    <path class="st0" d="M999.4,1738.4L261.6,1000.6,1000.6,261.6l737.8,737.8-739,739h0ZM264.5,1000.6l734.9,734.9,736.2-736.2L1000.6,264.5,264.5,1000.6Z"/>
    <path class="st0" d="M999.4,1626L374,1000.6,1000.6,374l625.4,625.4-626.6,626.6ZM376.8,1000.6l622.6,622.6,623.8-623.8L1000.6,376.8,376.8,1000.6Z"/>
  </g>
  <path class="st1" d="M1281.3,816.7c-20.2,66.5-73.2,240.4-94.1,309.3h124.7l-30.6,57.2h-174c11.3-35.6,85.5-268.5,98.6-309.5h-106l-98.3,309.5h-5.2l-93.8-219-92.6,219h-5.2l-116.7-366.5h62.4l67.9,224.2,83.9-208.8h2.2l83.9,208.5,67.7-223.9h225.3Z"/>
</svg>